<svg width="366" height="506" viewBox="0 0 366 506" fill="none" xmlns="http://www.w3.org/2000/svg">
<g clip-path="url(#clip0_1037_1050)">
<path d="M36.9601 299.142L34.5866 298.645L35.1915 297.218L37.6582 298.645L36.9601 299.142ZM88.9907 280.092L87.8737 283.629L89.9214 285.428L90.2937 288.655L97.0418 294.984L97.7864 296.474L96.5299 300.755L97.3676 302.368L95.8784 303.796L92.2483 301.934L89.6887 304.044L86.5706 305.471L82.8941 305.968L79.869 304.044L79.4502 305.657L80.5205 308.015L79.7293 310.311L77.5421 313.29L75.122 312.793L74.1912 313.662L74.2378 316.268L73.2139 317.571L73.8655 320.364L76.0527 322.039L78.9381 326.196L80.7533 327.624L86.8033 329.547L84.3833 332.898L82.6148 337.056L82.2425 341.027L83.499 342.764L86.3844 342.95L89.3629 345.619L84.8486 347.728L80.6136 347.604L76.3786 346.177L75.0755 344.626L74.8894 340.717L75.6805 338.607L73.5397 334.573L71.0731 333.767L68.7928 336.931L63.813 337.428L63.4408 331.719L65.535 330.044L65.8142 328.554L62.9753 324.893L54.1795 326.879L51.4337 326.072L52.6902 320.984L55.2034 317.819L51.2941 314.531L51.806 311.49L48.269 310.001L42.4517 311.862L38.8682 312.235L35.9828 311.242L32.7251 305.099L33.237 302.803L32.6319 299.762L29.002 297.032L32.7251 296.225L34.5866 297.404L34.0747 299.08L37.8908 299.204L38.5424 297.901L35.7966 297.032L35.0986 295.046L35.7966 294.674L38.5424 297.901L38.682 297.653L37.2859 296.039L37.6582 292.564L39.9851 290.579L39.9386 288.841L41.9397 289.462L42.5448 286.98L39.6128 286.918L44.1271 282.264L47.3383 277.299L50.3633 281.457L51.7129 281.085L53.4349 282.698L57.9956 280.65L60.8346 281.333L64.6507 283.567L66.9312 282.698L67.9085 280.899L70.5146 282.946L74.6567 283.132L77.2628 281.085L78.147 276.865L83.5921 277.982L88.9907 280.092Z" fill="black"/>
<path d="M25.0934 295.791L26.8618 296.225L28.3044 299.266L27.9788 301.127L26.4895 300.941L24.721 298.521L25.0934 295.791ZM58.0429 366.406L54.9248 367.027L50.2709 365.786L48.4094 364.793L47.1063 357.471L44.8258 357.284L41.7543 355.485L40.9166 352.32L39.2877 351.638L35.6577 352.631L33.8427 351.017L27.5133 349.28L23.6041 346.301L19.9275 344.626L17.0886 341.399L13.9706 340.903L13.0397 338.855L11.1316 338.793L7.96696 334.946L6.19852 333.705L5.08158 329.857L4.10431 330.292L0.427734 327.499L5.73318 321.977L8.33932 321.667L13.9706 323.156L14.6686 318.998L13.3655 319.681L13.5516 316.578L12.5744 315.648L11.1782 317.075L10.0612 310.808L14.3894 302.927L18.2521 298.77L21.184 297.032L22.8594 300.135L23.0921 297.404L25.6517 301.003L28.5837 301.127L28.0718 297.156L29.0026 297.032L32.6326 299.762L33.2377 302.803L32.7257 305.099L35.9835 311.242L38.8689 312.235L42.4523 311.862L48.2697 310.001L51.8067 311.49L51.2948 314.531L55.204 317.819L52.6909 320.984L51.4343 326.072L54.1802 326.879L62.9761 324.893L65.8149 328.554L65.5356 330.044L63.4414 331.719L63.8138 337.428L61.8591 339.724L58.5084 341.275L58.5548 344.688L60.1837 345.681L58.4618 350.397L53.9941 356.043L57.8568 359.456L57.3914 360.511L58.6013 365.165L58.0429 366.406Z" fill="black"/>
<path d="M50.829 248.136L51.3875 248.756L45.0582 249.129L48.9676 246.522L50.829 248.136ZM48.316 251.549L50.9687 249.377L52.8303 249.811L50.8756 250.246L48.316 251.549ZM89.1306 225.053L87.176 226.976L86.2918 229.396L82.6617 232.933L82.2894 235.105L78.5663 238.704L78.101 242.179L77.1235 244.04L74.9827 244.351L76.4721 246.584V249.067L78.1474 250.246L73.4935 254.775L71.3527 254.527L69.4446 256.327L64.5581 254.961L62.65 252.542L59.3922 253.038L57.6238 251.176H54.9245L53.761 248.88L51.2945 248.074L49.8052 245.716L50.6429 244.475L51.853 239.635L51.6667 233.429L53.3422 233.926L51.2945 231.568L50.5033 225.983L50.736 218.289L49.3398 211.898L47.7109 210.781L45.0117 211.029L46.8732 207.926L49.4795 206.933L50.9221 207.554L53.761 204.761L54.2265 202.155L51.0618 194.895L50.6429 195.764L47.199 189.931L47.4317 186.58L49.2467 188.442L50.2707 186.58L49.7588 183.974L51.4806 179.258L49.3398 176.466L49.4795 174.728L47.9436 173.86L45.6633 175.597L44.6394 171.44L41.4282 169.144L41.149 166.972L42.3125 166.103L41.2421 163.745L35.1455 158.223L37.4724 150.962L38.8221 151.025L40.032 148.667L38.9616 145.13L39.8925 143.64L41.9867 145.44L43.6156 149.163L44.6394 149.473L46.7337 147.488L51.8064 144.075L50.6429 142.027L52.4115 138.862L53.9472 137.683L56.9256 137.249L55.1572 132.285L52.4115 127.321L51.2479 127.01L49.526 121.364L47.5714 120.867L51.2479 114.662L53.9472 120.247L58.0891 122.915L60.4626 126.948L62.4639 127.569L63.3946 132.719L61.9054 135.325L61.3003 138.366L58.3684 140.041L58.6942 142.71L65.582 148.48L71.0269 154.872L74.1451 156.423L75.867 158.099L76.5651 163.373L75.3086 165.917L71.2132 164.8L66.8385 165.545L67.8157 168.896L66.6524 170.385L62.5569 171.254L63.5807 175.349L64.5581 174.79L64.8838 178.141L68.002 181.182L67.5831 186.208L70.6081 190.738L74.5174 190.924L79.9159 190.117L83.2201 190.179L84.9887 194.833L88.1533 196.633L87.5017 200.046L88.8514 204.079L88.5256 206.623L90.1545 208.671L88.6187 212.332L86.4779 213.697L86.0125 216.737L88.479 220.771L89.1306 225.053Z" fill="black"/>
<path d="M128.782 217.418L129.154 222.941L128.363 227.285V232.187L126.408 234.545L127.386 237.027L126.687 238.02L126.734 242.301L124.593 247.017L124.826 248.258L127.711 247.824L131.574 250.058L134.553 248.258L136.554 251.237L135.251 256.821L135.809 257.938L134.273 263.213L131.062 266.191L128.13 270.659L128.037 272.831L123.942 277.795L122.22 278.167L119.055 277.174L120.125 273.451H117.193L115.89 274.816L113.47 275.251L111.749 274.134L106.908 275.623L105 278.167L101.836 284.435L95.5995 289.833L92.0159 288.096L90.2941 288.654L89.9217 285.427L87.874 283.628L88.991 280.091L89.9217 276.988L89.7822 273.141L91.3645 269.604L92.4349 265.012L95.553 260.296L98.4384 253.967L103.232 247.389L103.837 243.418L106.815 238.392L108.258 237.647L109.561 234.731L109.933 232.187L111.423 229.333L110.678 228.029L111.795 225.299L110.864 224.306L112.493 222.134L116.17 220.955L117.24 221.328L119.381 218.039L123.057 216.86L126.269 216.674L128.782 217.418Z" fill="black"/>
<path d="M89.3636 345.619L86.3851 342.951L83.4997 342.765L82.2432 341.028L82.6155 337.056L84.384 332.899L86.804 329.548L92.3887 329.61L95.9721 326.383L102.395 317.82L104.675 315.71L108.538 309.257L110.865 307.582L112.866 304.789L114.634 300.321L116.542 300.942L120.079 298.646L121.336 296.971L119.474 294.116L121.894 289.773L124.268 288.035L129.294 289.338L133.296 294.985L131.621 302.742L131.807 307.147L134.832 311.243L132.691 315.462L132.971 317.882L135.856 321.481L153.634 327.81L160.894 328.059L164.245 333.767L167.828 337.801L168.387 340.655L175.88 347.915L178.672 349.218L180.813 348.474L184.35 345.557L185.001 342.207L186.583 340.965L188.305 342.331L188.957 340.965L191.005 341.152L194.821 343.758L196.915 344.378L198.59 346.116L199.056 348.474L201.755 350.459L201.802 352.569L203.989 354.865L207.945 355.672L210.086 357.099L211.296 359.705L213.343 360.822L213.064 362.435L215.856 364.545L215.577 365.972L217.532 365.848L220.464 369.323L224.978 371.743L228.515 371.309L231.494 373.108L229.446 375.094L222.372 378.445L219.347 381.051L217.904 383.905L215.81 384.588L210.039 384.96L207.293 387.008L204.175 391.228L203.896 394.889L201.429 396.13L198.497 393.896L194.635 397.805L192.68 396.998L189.515 394.392L187.747 394.144L184.582 395.261L181.231 393.027L178.718 395.075L174.995 395.385L171.179 392.469L166.758 393.213L164.152 392.655L163.267 391.103L159.312 388.807L155.216 388.994L150.795 387.256L147.63 384.588L143.954 384.03L142.418 381.423L139.672 381.113L138.741 379.872L137.066 380.927L133.389 380.182L131.249 378.755L130.271 374.846L130.69 372.55L128.875 371.123L125.478 370.44L122.267 368.951L121.289 362.932L115.1 361.505L114.774 358.402L113.564 355.424L111.656 354.431L107.374 354.493L103.186 351.514H99.7418L95.786 350.273L93.6452 346.364L89.3636 345.619Z" fill="black"/>
<path d="M124.267 288.034L121.894 289.771L119.474 294.115L121.335 296.969L120.079 298.644L116.542 300.94L114.634 300.32L112.865 304.788L110.864 307.58L108.537 309.255L104.674 315.709L102.394 317.819L95.9714 326.382L92.3879 329.608L86.8033 329.546L80.7532 327.623L78.9381 326.195L76.0527 322.038L73.8655 320.363L73.2139 317.57L74.2377 316.267L74.1911 313.661L75.122 312.792L77.542 313.289L79.7293 310.31L80.5204 308.014L79.4501 305.656L79.8689 304.043L82.894 305.967L86.5706 305.47L89.6887 304.043L92.2483 301.933L95.8784 303.795L97.3676 302.368L96.5299 300.754L97.7864 296.473L97.0418 294.983L90.2937 288.654L92.0156 288.096L95.5991 289.833L101.835 284.435L105 278.167L106.908 275.623L111.748 274.134L113.47 275.251L115.89 274.817L117.193 273.451H120.125L119.055 277.175L122.219 278.167L123.941 277.795L128.037 272.831L128.13 270.659L131.062 266.191L134.273 263.213L135.25 264.516L136.367 265.323L134.924 268.922L132.691 271.9L131.62 278.726L130.736 280.215L126.454 283.318L124.267 288.034Z" fill="black"/>
<path d="M89.3636 345.618L93.6453 346.362L95.7861 350.272L99.7418 351.513H103.186L107.374 354.491L111.656 354.429L113.564 355.422L114.774 358.4L115.1 361.503L121.289 362.93L122.267 368.949L125.478 370.438L128.875 371.121L130.69 372.548L130.271 374.844L131.249 378.753L133.389 380.181L137.066 380.925L138.742 379.87L139.672 381.111L142.418 381.422L143.954 384.028L147.63 384.586L150.795 387.254L155.216 388.992L138.695 394.142L135.065 390.978L131.9 387.379L127.432 386.572L128.503 385.517L126.409 382.29L124.966 383.842L123.151 383.469L119.661 381.173L116.915 378.443L114.495 378.133L112.68 380.367L108.538 379.002L101.743 374.534L97.4615 374.596L93.366 371.679L89.5498 366.157L87.5952 366.529L86.804 365.04L84.4306 364.792L81.8244 363.24L78.6597 364.978L78.8925 369.446L73.6334 370.376L69.3984 368.763L69.1192 370.128L64.2326 369.694L62.7899 368.453L59.8115 367.894L58.0429 366.405L58.6014 365.164L57.3914 360.51L57.8568 359.455L53.9941 356.042L58.4618 350.396L60.1837 345.68L58.5549 344.687L58.5084 341.274L61.8592 339.723L63.8138 337.427L68.7935 336.93L71.0739 333.766L73.5404 334.572L75.6813 338.606L74.8901 340.716L75.0762 344.625L76.3793 346.176L80.6143 347.603L84.8494 347.727L89.3636 345.618Z" fill="black"/>
<path d="M155.216 388.993L159.311 388.807L163.267 391.103L164.151 392.654L166.757 393.212L171.178 392.468L174.995 395.384L178.718 395.074L181.231 393.026L184.582 395.26L187.746 394.143L189.515 394.391L192.679 396.997L194.634 397.804L198.497 393.895L201.429 396.129L203.895 394.888L204.175 391.227L207.293 387.007L210.039 384.959L215.809 384.587L217.904 383.905L219.346 381.05L222.371 378.444L229.445 375.093L231.493 373.107L233.122 374.162L235.961 373.666L236.985 376.024L239.917 377.203L241.266 376.831L242.895 378.816L242.988 381.484L245.594 386.573L247.084 386.945L248.387 385.642L256.159 388L257.741 391.227L260.58 391.537L262.814 389.365L264.722 389.986L262.069 393.957L263.977 394.702L264.163 398.921L263 399.914L264.815 402.954L262.814 405.374L264.489 406.926L265.606 406.057L265.559 408.415L267.049 409.532L269.05 408.725L267.468 406.616L274.309 405.064L272.773 408.291L277.38 408.725L279.288 407.174L281.383 408.601L282.313 412.386L283.849 411.518L287.293 412.883L288.596 414.682L288.224 420.205L287.2 424.424L272.494 504.285L271.935 505.34L269.096 501.431L265.28 499.011L264.442 495.846L261.604 492.992L259.603 492.682L257.787 494.109L254.623 494.047L248.945 491.503L269.562 459.298L268.259 456.753L266.816 457.808L264.024 456.567L262.209 453.837L260.301 454.582L260.347 452.348L257.369 452.534L253.739 449.866L251.644 451.293L249.922 447.508L247.456 446.949L244.896 444.591L241.313 443.598L240.475 445.398L236.798 445.522L234.518 447.942L231.633 447.694L228.468 448.935L227.398 445.274L226.141 447.073L224.931 444.281L220.742 442.668L219.16 443.288L218.927 441.737L215.856 443.288L212.086 447.508H208.41L206.269 449.804L203.849 449.493L202.592 450.61L199.195 451.045L197.845 449.742L194.215 449.121L191.795 447.632L189.561 450.176L186.955 448.935L182.813 450.176L182.022 448.314L179.416 446.577L178.625 447.942L176.344 446.329L175.181 443.971L177.787 439.689L176.065 436.276L175.553 431.436L173.738 429.699L170.946 431.25L165.222 427.651L166.618 424.611L166.245 421.756L163.639 419.46L164.244 418.529L162.057 415.055L158.52 412.883L157.077 414.062L154.75 413.069L153.54 410.773L150.655 410.09L149.212 407.36L147.583 407.981L143.953 406.926L140.835 403.078L142.324 402.706L142.092 400.845L139.811 399.417L140.23 397.556L138.694 394.143L155.216 388.993Z" fill="black"/>
<path d="M104.395 72.3417L104.162 71.2247L105.931 67.8739L102.58 70.4801L100.812 71.0385L104.116 67.0052L106.396 65.516L106.164 63.2821L104.814 62.2892L106.768 60.4277L106.582 57.4492L109.747 54.5948L114.075 53.7261L114.913 56.2082L113.749 59.1245L114.447 60.4277L116.542 60.8L117.705 62.9719L119.334 62.6615L124.034 67.1293L123.243 71.0385L125.756 72.2175L127.246 74.2033L127.106 75.6304L125.198 77.1196L125.151 79.1053L127.013 82.2079L126.548 84.0694L127.99 86.3654L127.478 91.888L129.898 92.4465L135.948 98.1553L138.368 97.3486L138.88 98.5275L142.138 99.2722L145.303 102.623L148.421 104.547L149.817 103.74L151.585 105.726L154.89 106.222L154.983 108.766L156.844 110.938L156.193 116.212L158.194 121.735L158.38 125.644L157.217 128.995L157.496 130.733L155.402 132.408L154.936 135.386L156.612 142.274L156.053 147.859L153.866 150.403L154.099 153.381L153.214 156.732L143.627 165.916L140.882 165.482L139.299 160.704L139.206 156.112L140.788 152.761L140.277 151.023L137.205 154.871L134.413 153.009L133.668 149.969L134.459 146.742L136.274 145.315L136.693 143.577L135.343 141.592L135.018 138.613L133.342 135.697L126.361 129.864L127.339 128.002L127.246 127.133L130.922 126.265L134.087 123.534L134.785 121.611L133.249 113.668L135.064 111.248L131.574 106.408L126.687 103.057L124.453 100.079L123.29 94.9286L124.5 92.3845L123.243 91.2055L120.637 90.7711L121.289 89.3439L119.52 89.0956L116.123 85.993L112.726 84.8762L110.492 85.993L111.888 78.733L107.42 77.6781L107.513 73.955L105.838 74.017L107.234 70.8524L104.395 72.3417ZM114.866 52.1127L113.703 52.2368L114.913 50.6855L115.099 51.6163L114.866 52.1127Z" fill="black"/>
<path d="M98.4386 253.967L95.5532 260.296L92.4351 265.012L91.3647 269.604L89.7824 273.141L89.9219 276.988L88.9912 280.091L83.5927 277.981L78.1475 276.864L77.2634 281.084L74.6572 283.131L70.5152 282.945L67.909 280.897L66.9317 282.697L64.6512 283.566L60.8351 281.332L57.9962 280.649L53.4354 282.697L51.7134 281.084L50.3638 281.456L47.3389 277.298L47.5715 275.623L50.2708 274.258L52.7838 268.859L54.6454 268.301L56.1812 265.943L55.4831 263.523L57.0189 263.461L57.2981 261.475L60.4162 258.559L57.5774 258.311L57.6705 259.676L53.7611 261.041L51.9927 258.931L52.365 257.132L54.0404 256.883L55.6693 254.153L53.4354 252.912L52.4116 254.153L50.9689 258.311L48.5954 256.015L49.1073 254.774L48.3161 251.547L50.8757 250.244L52.8304 249.809L53.4354 249.251L53.7611 248.879L54.9246 251.175H57.6239L59.3924 253.036L62.6501 252.54L64.5583 254.96L69.4448 256.325L71.3529 254.525L73.4937 254.774L78.1475 250.244L76.4722 249.065V246.583L74.9829 244.349L77.1237 244.039L78.1011 242.177L78.5664 238.702L82.2896 235.103L82.6618 232.931L86.2919 229.394L87.1761 226.974L89.1308 225.051L94.1104 233.242L99.9278 234.793L100.067 236.158L96.577 236.282L95.0412 239.633L94.6223 243.542L97.0424 244.349L97.6008 247.638L96.4373 249.996L96.3909 252.974L98.4386 253.967Z" fill="black"/>
<path d="M100.858 92.6958L103.185 91.6409L104.488 86.5526L103.278 84.505L100.719 84.1326L102.348 82.4573L104.163 76.19L104.395 72.3428L107.234 70.8535L105.838 74.0182L107.514 73.9561L107.42 77.6792L111.888 78.7342L110.492 85.9942L112.726 84.8773L116.123 85.9942L119.52 89.0968L121.289 89.345L120.637 90.7722L123.244 91.2066L124.5 92.3856L123.29 94.9297L124.454 100.08L126.687 103.059L131.574 106.409L135.065 111.249L133.25 113.669L134.785 121.612L134.087 123.536L130.923 126.266L127.246 127.135L127.106 125.025L123.151 120.929L119.148 121.922L116.03 123.411L112.726 121.053L110.818 111.311L112.679 108.457L115.285 107.65L115.192 104.113L108.77 100.701L107.746 98.1564L100.812 94.6194L100.858 92.6958Z" fill="black"/>
<path d="M114.076 53.7266L115.1 52.982L114.867 52.1132L115.1 51.6167L114.913 50.686L120.591 47.4593L120.964 45.7219L126.176 42.3711L128.549 45.1013L129.759 48.0178L129.62 57.5738L127.339 59.8077L126.455 62.9723L124.035 67.1297L119.335 62.662L117.706 62.9723L116.542 60.8004L114.448 60.4282L113.75 59.125L114.913 56.2086L114.076 53.7266Z" fill="black"/>
<path d="M157.496 130.732L157.217 128.995L158.38 125.644L158.194 121.735L156.193 116.212L156.844 110.938L154.983 108.766L157.031 103.74L154.704 99.8303L152.516 99.5201L152.423 96.5415L151.074 93.3769L147.071 90.3363L150.329 87.544L154.797 88.2266L157.496 87.3579L155.774 83.0763V81.587L150.888 76.4988L149.166 73.5824L149.631 70.0454L154.238 63.9643L157.868 63.4058L163.546 60.055L162.476 55.5253L164.011 53.1673L161.545 51.9262L162.708 49.6923L167.269 49.0098L172.575 49.6923L173.226 53.0432L176.949 54.7185L178.392 56.1458L175.274 61.4202L176.763 63.0956L180.254 63.0336L183.092 62.2268L182.534 69.8593L180.998 75.1957L181.324 80.0978L177.042 88.4127L175.413 89.5917L172.528 94.4318L171.504 97.038L169.503 98.9616L169.968 100.389L168.386 100.885L167.502 109.448L168.107 111.682L164.337 116.46L164.105 117.825L166.199 121.61L165.128 123.72L167.269 125.83L168.759 124.279L168.2 122.169L169.689 121.921L170.294 123.72L168.665 128.747L168.712 131.787L170.062 135.076L172.249 136.007L170.434 138.737L170.248 141.343L168.014 144.384L166.106 145.314L162.243 143.639L158.52 143.453L158.66 140.971L160.707 138.861L160.754 137.248L159.171 136.007L157.496 130.732Z" fill="black"/>
<path d="M163.407 39.2067L163.872 36.6626H168.665L171.923 36.1041L178.904 30.023L182.441 28.1614L187.514 23.8798L196.542 20.9634L202.08 18.109L205.71 11.4695L204.733 7.56021L210.643 6.87765L209.294 8.73921L210.737 9.91821L213.622 8.24277L212.877 6.19509L210.876 6.00897L213.575 3.52689L215.483 4.76793L218.695 1.60317L218.555 0.486328L223.442 0.920609L231.958 4.45761L235.775 11.5315L235.076 13.8895L230.423 16.806L229.585 18.9777L226.001 20.6532L210.737 24.8107L209.62 25.9275L202.406 39.8273L195.286 41.2544L193.052 46.2186L189.236 50.6243L187.839 54.7196L185.233 58.2566L183.092 62.2279L180.254 63.0347L176.763 63.0967L175.274 61.4212L178.392 56.1469L176.949 54.7196L173.226 53.0443L172.575 49.6934L167.269 49.0109L162.708 49.6934L161.405 45.2877L161.778 40.82L163.407 39.2067Z" fill="black"/>
<path d="M162.708 49.6935L161.545 51.9274L164.011 53.1685L162.475 55.5264L163.546 60.0562L157.868 63.407L154.238 63.9654L149.631 70.0466L149.165 73.5836L150.887 76.4999L155.774 81.5882V83.0775L157.496 87.3591L154.797 88.2278L150.329 87.5452L147.071 90.3375L151.073 93.378L152.423 96.5427L152.516 99.5212L154.704 99.8314L157.03 103.741L154.983 108.767L154.89 106.223L151.585 105.726L149.817 103.741L148.421 104.547L145.303 102.624L142.138 99.2731L138.88 98.5283L138.368 97.3495L135.948 98.1561L129.898 92.4473L127.478 91.8889L127.99 86.3662L126.547 84.0702L127.013 82.2087L125.151 79.1061L125.198 77.1205L127.106 75.6313L127.246 74.2041L125.756 72.2183L123.243 71.0393L124.034 67.1301L126.454 62.9727L127.339 59.808L129.619 57.5741L129.759 48.0182L128.549 45.1017L126.175 42.3715L126.268 41.6889L135.716 45.1017L140.463 45.9083L136.321 45.7842L135.855 47.2735L136.926 49.5074L133.761 48.4525L133.296 51.3689L136.693 49.8177L137.67 52.61L140.416 51.8033L142.836 45.2878L144.698 42.6196L144 39.0206L145.582 35.4837L150.98 34.3047L156.239 36.6627H163.872L163.406 39.2068L161.777 40.8201L161.405 45.2878L162.708 49.6935Z" fill="black"/>
<path d="M211.761 165.482L215.67 166.04L217.392 164.799L222 163.993L232.052 164.986L232.285 166.04L234.984 166.661L241.639 165.172L243.361 163.62L249.318 162.441L253.041 162.814L254.763 164.923L256.532 165.172L260.813 167.219L265.607 165.978L267.422 166.971L287.154 191.668H287.526L283.338 193.778L276.962 193.591L274.868 194.708L271.75 191.73L269.749 190.985L266.956 188.007L264.815 187.386L259.324 187.262L255.415 188.875L248.76 189.31L244.664 189.186L234.426 187.51L226.84 189.806L222.465 189.496L219.068 189.806L215.065 191.171L212.366 191.296L206.13 193.653L203.058 191.73L200.452 187.945L201.197 185.276L202.872 182.67L206.083 181.553L207.014 179.63L207.712 173.859L209.155 172.246L211.761 165.482Z" fill="black"/>
<path d="M162.243 143.64L166.106 145.315L168.014 144.384L170.248 141.344L170.434 138.737L172.249 136.007L170.062 135.076L168.712 131.788L168.666 128.747L170.294 123.721L169.689 121.921L168.2 122.17L168.759 124.279L167.269 125.831L165.129 123.721L166.199 121.611L164.105 117.826L164.337 116.461L168.107 111.683L167.502 109.449L168.386 100.886L169.969 100.389L174.436 100.141L180.44 96.418L181.371 100.824L182.627 102.375L185.885 101.072L187.188 103.554L190.399 115.84L191.004 116.833L199.009 125.272L198.73 127.754L200.545 132.346L200.126 134.208H198.45L196.077 137.062L197.147 140.599L196.217 146.121L196.822 148.479L196.263 150.403L197.194 152.389L201.057 153.94L204.501 154.188L205.757 155.74L206.083 159.835L208.27 163.682L210.876 165.296L205.292 164.489L203.197 166.413L202.127 165.544L199.288 169.391L195.658 168.336L194.402 169.205L193.517 165.606L188.491 166.102L184.303 163.558L185.932 160.828L184.396 158.036L185.559 154.933L183.744 151.396L181.603 149.659L181.138 147.238L174.436 146.742L173.133 149.348L169.829 149.1L165.873 147.487L162.243 143.64Z" fill="black"/>
<path d="M201.196 185.275L200.452 187.944L203.058 191.729L206.129 193.652L212.365 191.294L215.065 191.17L219.067 189.805L222.464 189.495L226.839 189.805L234.425 187.509L244.663 189.185L248.759 189.309L255.414 188.874L259.323 187.261L264.815 187.385L266.956 188.006L269.748 190.984L271.749 191.729L274.867 194.707L273.611 196.383L271.516 201.347L268.585 205.566L265.094 208.049L260.394 208.669L257.229 209.786L250.388 214.13L250.109 216.115L244.152 221.266L242.011 222.382L239.032 228.464L234.425 231.566L232.61 231.814L223.954 235.662L220.37 237.895L216.368 239.074L214.041 241.619L210.597 244.225L208.875 244.349L206.455 242.673L201.289 243.977L199.986 245.9L197.985 245.59L195.844 246.645L194.215 245.59L193.378 246.955L188.584 246.893L188.444 245.776L183.232 240.502L179.462 234.172L178.997 231.876L180.114 226.602L181.789 226.788L183.837 223.623L182.394 221.762L182.86 218.908L186.723 214.564L189.701 217.667L193.238 215.433L198.311 209.289L201.336 210.841L202.732 206.497L203.756 205.442L200.358 201.905L197.473 200.354L199.102 198.927L200.638 193.528L198.404 189.743L200.219 185.772L201.196 185.275Z" fill="black"/>
<path d="M210.085 357.099L207.944 355.672L203.989 354.865L201.801 352.569L201.755 350.459L199.055 348.473L198.59 346.115L196.915 344.378L194.82 343.757L191.004 341.151L188.957 340.965L188.305 342.33L186.583 340.965L185.001 342.206L184.349 345.557L180.812 348.473L178.671 349.218L175.879 347.915L168.386 340.655L167.828 337.8L164.244 333.767L160.894 328.058L161.312 327.562L161.499 307.891L163.174 305.099L168.34 306.775L173.878 306.154L174.669 305.037L176.531 305.844L180.486 304.292L183.279 302.307L183.93 300.197L187.374 298.584L189.003 299.825L189.98 298.398L192.121 299.639L192.819 298.025L198.45 295.791L200.079 294.488L203.523 295.667L203.663 293.93L205.292 293.371L205.152 291.51L207.433 290.517L211.295 292.565L215.949 291.572L217.299 290.703L218.276 292.006L219.021 290.083L222.371 292.068L224.233 290.827L229.585 291.137L231.959 289.338L234.285 290.827L236.007 289.958L239.126 290.393L242.197 290.517L246.432 292.565L253.273 291.137L256.066 292.875L244.198 297.901L244.105 298.77L248.666 300.631L250.807 303.424L252.436 306.712L256.019 308.264L261.976 309.815L270.027 308.202L271.144 310.622L267.98 313.538L265.094 315.71L257.788 317.013L256.159 318.068L250.062 319.619L248.759 319.123L243.779 319.247L242.104 321.108L236.333 324.025L233.215 326.569L229.399 324.77L228.98 328.865L228.142 329.858L224.885 338.483V342.144L222.837 345.619L220.929 347.481L218.462 347.791L217.532 349.466L210.085 357.099Z" fill="black"/>
<path d="M239.126 290.393L236.008 289.958L234.286 290.827L231.959 289.338L229.585 291.137L224.233 290.827L222.372 292.068L219.021 290.082L218.276 292.006L217.299 290.703L215.949 291.572L211.295 292.565L207.433 290.517L205.152 291.51L205.292 293.371L203.663 293.93L203.523 295.667L200.079 294.488L198.451 295.791L192.819 298.025L192.121 299.638L189.981 298.397L189.003 299.825L187.374 298.583L183.93 300.197L183.279 302.307L180.487 304.292L176.531 305.844L174.669 305.037L173.878 306.154L168.34 306.774L163.174 305.099L161.499 307.891L161.313 327.562L160.894 328.058L153.634 327.81L135.856 321.481L132.97 317.882L132.691 315.462L134.832 311.242L131.807 307.147L131.621 302.741L133.296 294.984L129.294 289.338L124.268 288.035L126.455 283.319L130.737 280.216L131.621 278.727L132.691 271.901L134.925 268.923L136.368 265.324L138.322 266.068L141.068 262.097L141.906 259.801L144.931 255.768L146.513 256.14L147.444 256.202L150.981 253.286L156.705 250.245H158.567L157.496 247.515L157.31 242.985L160.196 240.627L162.429 241.806L164.943 247.08L166.478 247.701L170.108 246.646L173.785 247.577L177.089 249.128L179.184 234.732L179.463 234.174L183.232 240.503L188.445 245.777L188.584 246.894L193.378 246.956L194.216 245.591L195.844 246.646L197.985 245.591L199.986 245.901L201.29 243.978L206.455 242.675L208.875 244.35L210.597 244.226L214.041 241.62L216.368 239.076L220.371 237.897L223.954 235.663L232.61 231.816L234.425 231.567L239.033 228.465L239.126 275.5V290.393Z" fill="black"/>
<path d="M231.493 373.107L228.514 371.308L224.977 371.742L220.463 369.322L217.531 365.847L215.577 365.971L215.856 364.544L213.063 362.434L213.343 360.821L211.295 359.704L210.085 357.098L217.531 349.465L218.462 347.79L220.929 347.479L222.836 345.618L224.884 342.143V338.482L228.142 329.857L228.98 328.864L229.399 324.769L233.215 326.568L236.333 324.024L242.104 321.107L243.779 319.246L248.759 319.122L250.062 319.618L256.158 318.067L257.787 317.012L265.094 315.709L267.979 313.537L266.444 320.611L269.655 323.217L275.937 325.451L275.705 326.63L275.658 345.06L278.358 344.129L279.754 345.06L282.639 344.625L286.874 344.997L288.689 345.928L290.132 344.935L292.598 345.68L296.694 350.83L295.623 355.484L297.159 357.408L294.507 358.525L290.411 357.718L288.084 355.422L286.13 354.988L282.686 357.408L280.405 356.911L277.054 358.711L269.608 359.331L269.003 380.926L269.189 381.98L272.913 386.386L275.472 387.441L278.823 390.854L282.267 392.467L283.71 396.625L282.406 399.355L284.082 401.775L285.059 405.002L287.758 407.298L287.805 410.214L289.248 412.944L288.596 414.682L287.293 412.882L283.849 411.517L282.313 412.386L281.383 408.601L279.288 407.173L277.38 408.725L272.773 408.29L274.309 405.064L267.467 406.615L269.05 408.725L267.049 409.531L265.559 408.415L265.606 406.057L264.489 406.925L262.814 405.374L264.815 402.954L263 399.913L264.163 398.921L263.977 394.701L262.069 393.956L264.722 389.985L262.814 389.365L260.58 391.536L257.741 391.226L256.158 387.999L248.386 385.641L247.083 386.945L245.594 386.572L242.988 381.484L242.895 378.816L241.266 376.83L239.916 377.202L236.984 376.023L235.961 373.665L233.122 374.162L231.493 373.107Z" fill="black"/>
<path d="M256.066 292.874L253.273 291.136L246.432 292.563L242.197 290.516L239.125 290.392V275.499L239.032 228.464L242.011 222.383L244.152 221.266L250.109 216.115L250.388 214.13L257.229 209.786L260.394 208.669L265.094 208.049L268.584 205.567L271.516 201.347L273.611 196.383L274.867 194.708L276.961 193.591L283.337 193.777L287.526 191.667L291.109 190.922L293.064 192.908L298.602 188.689L305.536 189.557L311.354 191.046L312.843 189.992L316.938 189.185L321.267 189.743L325.967 188.192L329.783 188.564L332.622 187.82L335.182 185.586L338.393 185.648L343.14 186.765L345.653 188.689V191.295L347.561 193.591L347.421 195.762L345.932 196.507L342.488 200.292L341.278 202.588L341.092 205.256L342.163 208.421L341.232 210.531L336.345 213.758L335.368 216.24L336.299 219.59L335.973 221.948L336.95 223.313L335.973 229.208L336.392 230.139L334.949 240.13L336.019 240.75L337.462 245.342L336.811 247.514L337.416 250.368L339.51 254.402L337.136 257.07L334.716 258L332.482 256.946L331.412 257.69L328.201 255.58L325.92 258.125L325.362 256.511L323.407 257.504L322.942 255.643L320.289 255.146L319.545 258.311L314.611 262.034L310.33 261.972L306.886 265.261L302.651 264.888L302.139 266.75L299.766 266.377L298.742 267.619L296.787 265.757L295.717 266.44L292.226 264.206L288.038 265.509L286.735 264.578L282.872 265.323L281.429 269.914L279.8 269.108L274.169 269.17L272.122 271.093L268.491 270.473L268.957 273.451L267.421 273.762L266.49 275.809L267.142 280.153L265.048 280.401L261.79 283.876L262.814 287.599L259.556 291.012L256.066 292.874Z" fill="black"/>
<path d="M126.361 129.864L133.342 135.697L135.018 138.613L135.344 141.592L136.693 143.577L136.274 145.315L134.459 146.742L133.668 149.969L134.413 153.009L137.205 154.871L140.277 151.024L140.789 152.761L139.206 156.112L139.299 160.704L140.882 165.482L143.627 165.916L153.214 156.732L153.447 162.627L154.471 165.172L150.934 167.778L147.909 172.121L142.417 176.217L139.625 177.086L139.02 181.677L139.858 183.229L135.669 187.448L133.854 189.496L133.11 192.288L133.947 194.026L133.528 198.431L132.039 200.169L131.388 202.899L129.899 202.775L127.944 205.381L125.291 203.706L121.568 204.637L118.59 206.25L118.543 208.174L117.007 210.159L115.472 210.531L113.051 213.076L111.795 212.145L111.143 208.422L109.794 205.816L107.234 205.878L102.999 203.892L103.604 205.505L103.79 210.469L99.2294 209.29L95.6458 211.338L92.6209 210.78L90.1542 208.67L88.5254 206.622L88.8512 204.078L87.5015 200.045L88.1531 196.632L84.9885 194.832L83.2199 190.179L79.9157 190.116L74.5172 190.923L70.6079 190.737L67.5829 186.207L68.0018 181.181L64.8836 178.14L64.5579 174.79L63.5805 175.348L62.5567 171.253L66.6521 170.384L67.8155 168.895L66.8383 165.544L71.213 164.799L75.3084 165.916L76.5649 163.372L75.8668 158.098L74.1449 156.422L71.0267 154.871L65.5818 148.48L58.694 142.709L58.3682 140.041L61.3001 138.365L61.9052 135.325L63.3944 132.718L62.4636 127.568L63.9528 129.74L63.7202 131.415L67.0244 131.167L66.9779 134.518L64.744 133.959L63.9528 136.38L66.3263 137.993L69.2117 137.683L69.9563 132.967L68.8859 127.506V123.287L66.8848 120.184L63.6736 118.819L65.3025 116.585L71.8179 114.785L72.609 112.8L75.2152 111.931L78.6591 109.139L80.288 113.11L81.9634 115.468L84.9885 118.012L85.3142 123.038L82.3358 126.948L79.2641 132.408L78.8453 137.434L76.658 143.205L76.8441 147.487L79.4968 154.188L95.5528 154.747L98.5313 150.651L103.837 148.542L105.14 144.943L107.793 141.344L110.678 139.048L114.634 134.146L118.031 133.525L123.15 133.401L126.361 129.864Z" fill="black"/>
<path d="M126.362 129.864L123.151 133.401L118.031 133.525L114.634 134.145L110.678 139.048L107.793 141.344L105.14 144.943L103.837 148.542L98.5315 150.651L95.553 154.747L79.497 154.188L76.8443 147.487L76.6582 143.205L78.8455 137.434L79.2643 132.408L82.336 126.948L85.3144 123.038L84.9887 118.012L81.9636 115.468L80.2882 113.11L78.6593 109.139L79.1714 107.898L82.2429 107.029L84.2906 105.043L84.3371 103.058L86.3384 100.7L86.9433 97.7831L88.4326 97.2246L89.596 94.8667L94.5756 92.3225L97.3215 91.8262L97.5076 93.4394L100.858 92.6948L100.812 94.6185L107.746 98.1555L108.77 100.7L115.192 104.112L115.285 107.649L112.679 108.456L110.818 111.31L112.726 121.053L116.03 123.411L119.148 121.921L123.151 120.928L127.106 125.024L127.246 127.134L127.339 128.002L126.362 129.864Z" fill="black"/>
<path d="M195.658 168.335L199.288 169.39L202.127 165.543L203.197 166.412L205.292 164.488L210.876 165.295L211.76 165.481L209.154 172.245L207.712 173.858L207.013 179.629L206.083 181.553L202.871 182.669L201.196 185.276L200.219 185.772L198.404 189.743L200.638 193.529L199.102 198.927L197.473 200.354L200.358 201.906L203.756 205.442L202.732 206.497L201.336 210.841L198.311 209.29L193.238 215.433L189.701 217.667L186.722 214.564L182.86 218.908L182.394 221.762L183.837 223.624L181.789 226.788L180.114 226.602L178.997 231.877L179.462 234.173L178.252 235.91H174.529L174.203 234.545L171.923 234.11L168.991 230.015L165.408 229.581L164.71 228.216L165.547 225.485L166.711 224.617L165.408 219.032L163.546 216.984L163.36 214.502L161.498 212.268L157.356 210.841L156.472 209.352L151.12 214.874L148.514 213.509L148.235 212.454L143.86 211.586L142.185 208.483L142.464 206.001L141.812 202.34L140.789 201.223L137.996 203.022L135.204 202.278L131.853 203.457L131.481 203.085L131.388 202.898L132.039 200.168L133.528 198.431L133.947 194.025L133.11 192.287L133.854 189.495L135.669 187.448L137.996 193.094L140.509 194.832L142.464 193.839L144 196.569L143.069 199.548L144.186 200.665L145.954 198.989L147.816 199.92L151.958 204.077L158.985 203.209L161.917 204.388L162.662 198.369L163.732 195.762L166.059 192.722L169.131 195.018L169.038 198.369L166.897 200.54L168.945 203.333L170.387 200.292L172.435 200.354L174.436 196.507L179.928 197.748L184.116 192.225L186.397 191.295L188.258 188.999L188.91 182.173L187.048 179.877L188.026 178.636L189.608 179.939L191.051 182.856L192.354 182.669L194.588 180.746L195.891 176.402L196.449 170.445L195.658 168.335Z" fill="black"/>
<path d="M195.659 168.336L196.45 170.446L195.891 176.403L194.588 180.746L192.354 182.67L191.051 182.856L189.609 179.94L188.026 178.636L187.049 179.877L188.91 182.173L188.259 188.999L186.397 191.295L184.117 192.226L179.928 197.748L174.437 196.507L172.436 200.355L170.388 200.293L168.945 203.333L166.898 200.541L169.038 198.369L169.131 195.018L166.06 192.722L163.733 195.763L162.663 198.369L161.918 204.388L158.986 203.209L151.959 204.078L147.817 199.92L145.955 198.989L144.187 200.665L143.07 199.548L144 196.569L142.465 193.839L140.51 194.832L137.997 193.095L135.67 187.448L139.859 183.228L139.021 181.677L139.626 177.085L142.418 176.216L147.91 172.121L150.935 167.777L154.472 165.171L153.448 162.627L153.215 156.732L154.099 153.381L153.867 150.403L156.054 147.859L156.612 142.274L154.937 135.386L155.403 132.408L157.497 130.732L159.172 136.007L160.754 137.248L160.708 138.861L158.66 140.971L158.521 143.453L162.244 143.639L165.874 147.486L169.829 149.1L173.134 149.348L174.437 146.742L181.139 147.238L181.604 149.658L183.745 151.396L185.56 154.933L184.396 158.035L185.932 160.828L184.303 163.558L188.492 166.102L193.518 165.606L194.402 169.205L195.659 168.336Z" fill="black"/>
<path d="M131.388 202.899L131.481 203.086L131.853 203.458L132.133 206.747L130.923 209.601L131.434 212.331L128.782 217.42L126.269 216.675L123.057 216.861L119.381 218.04L117.24 221.329L116.17 220.957L112.493 222.136L110.864 224.307L111.795 225.3L110.678 228.03L111.423 229.334L109.933 232.188L106.536 228.589L102.999 228.155L102.208 226.914L100.067 227.534L98.9037 224.742L97.4611 227.968L95.5995 228.155L93.5518 224.804L94.6222 222.446L96.251 222.756L97.1353 220.336L96.8561 217.854L100.579 218.35L102.068 216.923L99.8346 214.131L95.6926 214.813L95.646 211.339L99.2296 209.291L103.79 210.47L103.604 205.506L102.999 203.892L107.234 205.878L109.794 205.816L111.144 208.422L111.795 212.145L113.052 213.076L115.472 210.532L117.007 210.16L118.543 208.174L118.59 206.25L121.568 204.637L125.291 203.706L127.944 205.382L129.899 202.775L131.388 202.899Z" fill="black"/>
<path d="M128.782 217.42L131.435 212.332L130.923 209.602L132.133 206.747L131.854 203.458L135.205 202.279L137.997 203.024L140.789 201.225L141.813 202.341L142.465 206.003L142.185 208.485L143.861 211.587L148.236 212.456L148.515 213.511L151.121 214.876L156.473 209.353L157.357 210.843L161.499 212.27L163.361 214.504L163.547 216.986L165.408 219.033L166.711 224.618L165.548 225.487L164.71 228.217L165.408 229.582L168.992 230.017L171.924 234.112L174.204 234.546L174.53 235.912H178.253L179.463 234.174L179.184 234.733L177.09 249.129L173.785 247.577L170.109 246.647L166.479 247.701L164.943 247.081L162.43 241.806L160.196 240.628L157.311 242.985L157.497 247.515L158.567 250.246H156.706L150.981 253.286L147.444 256.202L146.514 256.14L148.329 252.107L146.7 248.012L147.91 246.026L147.677 244.164L151.307 237.277L150.656 236.098L150.842 231.754L148.701 231.196L146.327 235.974L144.419 237.401L145.769 241.248L144.745 248.694L142.977 253.41L141.348 252.604L140.045 255.334L140.324 258.064L138.555 262.222L136.368 265.324L135.251 264.518L134.274 263.214L135.81 257.94L135.251 256.823L136.554 251.238L134.553 248.26L131.575 250.059L127.712 247.826L124.826 248.26L124.594 247.019L126.735 242.303L126.688 238.021L127.386 237.029L126.409 234.546L128.363 232.188V227.286L129.155 222.943L128.782 217.42Z" fill="black"/>
<path d="M136.367 265.324L138.554 262.221L140.323 258.064L140.044 255.333L141.347 252.603L142.976 253.41L144.744 248.694L145.768 241.248L144.418 237.4L146.326 235.973L148.7 231.195L150.841 231.754L150.655 236.097L151.306 237.276L147.676 244.164L147.909 246.026L146.699 248.011L148.328 252.107L146.513 256.14L144.93 255.768L141.905 259.801L141.068 262.097L138.322 266.068L136.367 265.324Z" fill="black"/>
<path d="M95.6462 211.338L95.6927 214.813L99.8348 214.131L102.069 216.923L100.579 218.35L96.8563 217.854L97.1355 220.336L96.2512 222.756L94.6224 222.446L93.552 224.803L95.5997 228.154L97.4613 227.968L98.9039 224.741L100.067 227.534L102.208 226.913L102.999 228.154L106.536 228.589L109.934 232.188L109.561 234.732L106.397 236.035L105.326 235.228L99.9278 234.794L94.1104 233.243L89.1308 225.052L88.4792 220.77L86.0127 216.737L86.4781 213.696L88.6189 212.331L90.1546 208.67L92.6212 210.78L95.6462 211.338Z" fill="black"/>
<path d="M99.9275 234.794L105.326 235.229L106.396 236.036L109.561 234.732L108.258 237.649L106.815 238.394L103.837 243.42L103.232 247.391L98.4383 253.969L96.3906 252.976L96.437 249.997L97.6006 247.639L97.0421 244.351L94.6221 243.544L95.041 239.635L96.5768 236.284L100.067 236.16L99.9275 234.794Z" fill="black"/>
<path d="M275.938 325.452L269.655 323.218L266.444 320.612L267.98 313.538L271.145 310.621L270.028 308.201L261.976 309.815L256.019 308.263L252.436 306.712L250.807 303.423L248.666 300.631L244.105 298.769L244.199 297.901L256.066 292.874L259.556 291.013L262.814 287.6L261.79 283.877L265.048 280.402L267.142 280.154L266.491 275.81L267.421 273.763L268.957 273.452L268.492 270.474L272.122 271.094L274.17 269.171L279.801 269.109L281.43 269.915L282.872 265.323L286.735 264.579L288.038 265.51L292.227 264.206L295.717 266.44L296.788 265.758L298.742 267.619L299.766 266.378L302.14 266.751L302.651 264.889L306.887 265.261L310.33 261.973L314.612 262.035L319.545 258.312L320.29 255.147L322.943 255.643L323.408 257.505L325.363 256.512L325.921 258.125L328.201 255.581L331.413 257.691L332.483 256.946L334.717 258.001L337.137 257.071L339.51 254.402L340.208 257.753L342.116 262.841L345.002 263.586L347.003 265.261L349.051 270.598L352.076 273.018L351.936 274.259L349.377 277.858L347.655 278.54L336.066 289.462L335.554 292.44L338.719 290.765L342.489 291.695L344.025 295.357L346.77 296.225L351.61 301.934L355.473 304.106L356.218 306.029L354.915 307.643L356.357 311.986L357.847 312.669L357.428 316.206L359.522 319.495L362.128 326.445L363.571 331.409L363.617 333.767L365.153 336.745L365.386 339.91L359.615 341.461L358.638 339.041L359.336 330.23L357.986 325.141L356.823 322.783L353.518 318.378L351.192 313.6L348.213 312.111L343.606 314.717L337.695 322.101L335.554 323.652L331.413 323.963L329.598 321.977L328.294 318.75L325.269 316.206L322.896 321.605L326.433 324.893L290.644 325.017L283.803 323.528L281.709 324.521L275.938 325.452Z" fill="black"/>
<path d="M36.9601 299.142L34.5866 298.645L35.1915 297.218L37.6582 298.645L36.9601 299.142ZM88.9907 280.092L87.8737 283.629L89.9214 285.428L90.2937 288.655L97.0418 294.984L97.7864 296.474L96.5299 300.755L97.3676 302.368L95.8784 303.796L92.2483 301.934L89.6887 304.044L86.5706 305.471L82.8941 305.968L79.869 304.044L79.4502 305.657L80.5205 308.015L79.7293 310.311L77.5421 313.29L75.122 312.793L74.1912 313.662L74.2378 316.268L73.2139 317.571L73.8655 320.364L76.0527 322.039L78.9381 326.196L80.7533 327.624L86.8033 329.547L84.3833 332.898L82.6148 337.056L82.2425 341.027L83.499 342.764L86.3844 342.95L89.3629 345.619L84.8486 347.728L80.6136 347.604L76.3786 346.177L75.0755 344.626L74.8894 340.717L75.6805 338.607L73.5397 334.573L71.0731 333.767L68.7928 336.931L63.813 337.428L63.4408 331.719L65.535 330.044L65.8142 328.554L62.9753 324.893L54.1795 326.879L51.4337 326.072L52.6902 320.984L55.2034 317.819L51.2941 314.531L51.806 311.49L48.269 310.001L42.4517 311.862L38.8682 312.235L35.9828 311.242L32.7251 305.099L33.237 302.803L32.6319 299.762L29.002 297.032L32.7251 296.225L34.5866 297.404L34.0747 299.08L37.8908 299.204L38.5424 297.901L35.7966 297.032L35.0986 295.046L35.7966 294.674L38.5424 297.901L38.682 297.653L37.2859 296.039L37.6582 292.564L39.9851 290.579L39.9386 288.841L41.9397 289.462L42.5448 286.98L39.6128 286.918L44.1271 282.264L47.3383 277.299L50.3633 281.457L51.7129 281.085L53.4349 282.698L57.9956 280.65L60.8346 281.333L64.6507 283.567L66.9312 282.698L67.9085 280.899L70.5146 282.946L74.6567 283.132L77.2628 281.085L78.147 276.865L83.5921 277.982L88.9907 280.092Z" fill="#EEEEEE"/>
<path d="M38.5424 297.901L37.8908 299.204L34.0747 299.08L34.5866 297.404L32.7251 296.225L29.002 297.032L32.6319 299.762L33.237 302.803L32.7251 305.099L35.9828 311.242L38.8682 312.235L42.4517 311.862L48.269 310.001L51.806 311.49L51.2941 314.531L55.2034 317.819L52.6902 320.984L51.4337 326.072L54.1795 326.879L62.9753 324.893L65.8142 328.554L65.535 330.044L63.4408 331.719L63.813 337.428L68.7928 336.931L71.0731 333.767L73.5397 334.573L75.6805 338.607L74.8894 340.717L75.0755 344.626L76.3786 346.177L80.6136 347.604L84.8486 347.728L89.3629 345.619L86.3844 342.95L83.499 342.764L82.2425 341.027L82.6148 337.056L84.3833 332.898L86.8033 329.547L80.7533 327.624L78.9381 326.196L76.0527 322.039L73.8655 320.364L73.2139 317.571L74.2378 316.268L74.1912 313.662L75.122 312.793L77.5421 313.29L79.7293 310.311L80.5205 308.015L79.4502 305.657L79.869 304.044L82.8941 305.968L86.5706 305.471L89.6887 304.044L92.2483 301.934L95.8784 303.796L97.3676 302.368L96.5299 300.755L97.7864 296.474L97.0418 294.984L90.2937 288.655L89.9214 285.428L87.8737 283.629L88.9907 280.092L83.5921 277.982L78.147 276.865L77.2628 281.085L74.6567 283.132L70.5146 282.946L67.9085 280.899L66.9312 282.698L64.6507 283.567L60.8346 281.333L57.9956 280.65L53.4349 282.698L51.7129 281.085L50.3633 281.457L47.3383 277.299L44.1271 282.264L39.6128 286.918L42.5448 286.98L41.9397 289.462L39.9386 288.841L39.9851 290.579L37.6582 292.564L37.2859 296.039L38.682 297.653L38.5424 297.901ZM38.5424 297.901L35.7966 297.032L35.0986 295.046L35.7966 294.674L38.5424 297.901ZM36.9601 299.142L34.5866 298.645L35.1915 297.218L37.6582 298.645L36.9601 299.142Z" stroke="#221F1F" stroke-width="0.4" stroke-miterlimit="10"/>
<path d="M25.0934 295.791L26.8618 296.225L28.3044 299.266L27.9788 301.127L26.4895 300.941L24.721 298.521L25.0934 295.791ZM58.0429 366.406L54.9248 367.027L50.2709 365.786L48.4094 364.793L47.1063 357.471L44.8258 357.284L41.7543 355.485L40.9166 352.32L39.2877 351.638L35.6577 352.631L33.8427 351.017L27.5133 349.28L23.6041 346.301L19.9275 344.626L17.0886 341.399L13.9706 340.903L13.0397 338.855L11.1316 338.793L7.96696 334.946L6.19852 333.705L5.08158 329.857L4.10431 330.292L0.427734 327.499L5.73318 321.977L8.33932 321.667L13.9706 323.156L14.6686 318.998L13.3655 319.681L13.5516 316.578L12.5744 315.648L11.1782 317.075L10.0612 310.808L14.3894 302.927L18.2521 298.77L21.184 297.032L22.8594 300.135L23.0921 297.404L25.6517 301.003L28.5837 301.127L28.0718 297.156L29.0026 297.032L32.6326 299.762L33.2377 302.803L32.7257 305.099L35.9835 311.242L38.8689 312.235L42.4523 311.862L48.2697 310.001L51.8067 311.49L51.2948 314.531L55.204 317.819L52.6909 320.984L51.4343 326.072L54.1802 326.879L62.9761 324.893L65.8149 328.554L65.5356 330.044L63.4414 331.719L63.8138 337.428L61.8591 339.724L58.5084 341.275L58.5548 344.688L60.1837 345.681L58.4618 350.397L53.9941 356.043L57.8568 359.456L57.3914 360.511L58.6013 365.165L58.0429 366.406Z" fill="#EEEEEE" stroke="#221F1F" stroke-width="0.4" stroke-miterlimit="10"/>
<path d="M50.829 248.136L51.3875 248.756L45.0582 249.129L48.9676 246.522L50.829 248.136ZM48.316 251.549L50.9687 249.377L52.8303 249.811L50.8756 250.246L48.316 251.549ZM89.1306 225.053L87.176 226.976L86.2918 229.396L82.6617 232.933L82.2894 235.105L78.5663 238.704L78.101 242.179L77.1235 244.04L74.9827 244.351L76.4721 246.584V249.067L78.1474 250.246L73.4935 254.775L71.3527 254.527L69.4446 256.327L64.5581 254.961L62.65 252.542L59.3922 253.038L57.6238 251.176H54.9245L53.761 248.88L51.2945 248.074L49.8052 245.716L50.6429 244.475L51.853 239.635L51.6667 233.429L53.3422 233.926L51.2945 231.568L50.5033 225.983L50.736 218.289L49.3398 211.898L47.7109 210.781L45.0117 211.029L46.8732 207.926L49.4795 206.933L50.9221 207.554L53.761 204.761L54.2265 202.155L51.0618 194.895L50.6429 195.764L47.199 189.931L47.4317 186.58L49.2467 188.442L50.2707 186.58L49.7588 183.974L51.4806 179.258L49.3398 176.466L49.4795 174.728L47.9436 173.86L45.6633 175.597L44.6394 171.44L41.4282 169.144L41.149 166.972L42.3125 166.103L41.2421 163.745L35.1455 158.223L37.4724 150.962L38.8221 151.025L40.032 148.667L38.9616 145.13L39.8925 143.64L41.9867 145.44L43.6156 149.163L44.6394 149.473L46.7337 147.488L51.8064 144.075L50.6429 142.027L52.4115 138.862L53.9472 137.683L56.9256 137.249L55.1572 132.285L52.4115 127.321L51.2479 127.01L49.526 121.364L47.5714 120.867L51.2479 114.662L53.9472 120.247L58.0891 122.915L60.4626 126.948L62.4639 127.569L63.3946 132.719L61.9054 135.325L61.3003 138.366L58.3684 140.041L58.6942 142.71L65.582 148.48L71.0269 154.872L74.1451 156.423L75.867 158.099L76.5651 163.373L75.3086 165.917L71.2132 164.8L66.8385 165.545L67.8157 168.896L66.6524 170.385L62.5569 171.254L63.5807 175.349L64.5581 174.79L64.8838 178.141L68.002 181.182L67.5831 186.208L70.6081 190.738L74.5174 190.924L79.9159 190.117L83.2201 190.179L84.9887 194.833L88.1533 196.633L87.5017 200.046L88.8514 204.079L88.5256 206.623L90.1545 208.671L88.6187 212.332L86.4779 213.697L86.0125 216.737L88.479 220.771L89.1306 225.053Z" fill="#EEEEEE" stroke="#221F1F" stroke-width="0.4" stroke-miterlimit="10"/>
<path d="M128.782 217.418L129.154 222.941L128.363 227.285V232.187L126.408 234.545L127.386 237.027L126.687 238.02L126.734 242.301L124.593 247.017L124.826 248.258L127.711 247.824L131.574 250.058L134.553 248.258L136.554 251.237L135.251 256.821L135.809 257.938L134.273 263.213L131.062 266.191L128.13 270.659L128.037 272.831L123.942 277.795L122.22 278.167L119.055 277.174L120.125 273.451H117.193L115.89 274.816L113.47 275.251L111.749 274.134L106.908 275.623L105 278.167L101.836 284.435L95.5995 289.833L92.0159 288.096L90.2941 288.654L89.9217 285.427L87.874 283.628L88.991 280.091L89.9217 276.988L89.7822 273.141L91.3645 269.604L92.4349 265.012L95.553 260.296L98.4384 253.967L103.232 247.389L103.837 243.418L106.815 238.392L108.258 237.647L109.561 234.731L109.933 232.187L111.423 229.333L110.678 228.029L111.795 225.299L110.864 224.306L112.493 222.134L116.17 220.955L117.24 221.328L119.381 218.039L123.057 216.86L126.269 216.674L128.782 217.418Z" fill="#EEEEEE" stroke="#221F1F" stroke-width="0.4" stroke-miterlimit="10"/>
<path d="M89.3636 345.619L86.3851 342.951L83.4997 342.765L82.2432 341.028L82.6155 337.056L84.384 332.899L86.804 329.548L92.3887 329.61L95.9721 326.383L102.395 317.82L104.675 315.71L108.538 309.257L110.865 307.582L112.866 304.789L114.634 300.321L116.542 300.942L120.079 298.646L121.336 296.971L119.474 294.116L121.894 289.773L124.268 288.035L129.294 289.338L133.296 294.985L131.621 302.742L131.807 307.147L134.832 311.243L132.691 315.462L132.971 317.882L135.856 321.481L153.634 327.81L160.894 328.059L164.245 333.767L167.828 337.801L168.387 340.655L175.88 347.915L178.672 349.218L180.813 348.474L184.35 345.557L185.001 342.207L186.583 340.965L188.305 342.331L188.957 340.965L191.005 341.152L194.821 343.758L196.915 344.378L198.59 346.116L199.056 348.474L201.755 350.459L201.802 352.569L203.989 354.865L207.945 355.672L210.086 357.099L211.296 359.705L213.343 360.822L213.064 362.435L215.856 364.545L215.577 365.972L217.532 365.848L220.464 369.323L224.978 371.743L228.515 371.309L231.494 373.108L229.446 375.094L222.372 378.445L219.347 381.051L217.904 383.905L215.81 384.588L210.039 384.96L207.293 387.008L204.175 391.228L203.896 394.889L201.429 396.13L198.497 393.896L194.635 397.805L192.68 396.998L189.515 394.392L187.747 394.144L184.582 395.261L181.231 393.027L178.718 395.075L174.995 395.385L171.179 392.469L166.758 393.213L164.152 392.655L163.267 391.103L159.312 388.807L155.216 388.994L150.795 387.256L147.63 384.588L143.954 384.03L142.418 381.423L139.672 381.113L138.741 379.872L137.066 380.927L133.389 380.182L131.249 378.755L130.271 374.846L130.69 372.55L128.875 371.123L125.478 370.44L122.267 368.951L121.289 362.932L115.1 361.505L114.774 358.402L113.564 355.424L111.656 354.431L107.374 354.493L103.186 351.514H99.7418L95.786 350.273L93.6452 346.364L89.3636 345.619Z" fill="#EEEEEE" stroke="#221F1F" stroke-width="0.4" stroke-miterlimit="10"/>
<path d="M124.267 288.034L121.894 289.771L119.474 294.115L121.335 296.969L120.079 298.644L116.542 300.94L114.634 300.32L112.865 304.788L110.864 307.58L108.537 309.255L104.674 315.709L102.394 317.819L95.9714 326.382L92.3879 329.608L86.8033 329.546L80.7532 327.623L78.9381 326.195L76.0527 322.038L73.8655 320.363L73.2139 317.57L74.2377 316.267L74.1911 313.661L75.122 312.792L77.542 313.289L79.7293 310.31L80.5204 308.014L79.4501 305.656L79.8689 304.043L82.894 305.967L86.5706 305.47L89.6887 304.043L92.2483 301.933L95.8784 303.795L97.3676 302.368L96.5299 300.754L97.7864 296.473L97.0418 294.983L90.2937 288.654L92.0156 288.096L95.5991 289.833L101.835 284.435L105 278.167L106.908 275.623L111.748 274.134L113.47 275.251L115.89 274.817L117.193 273.451H120.125L119.055 277.175L122.219 278.167L123.941 277.795L128.037 272.831L128.13 270.659L131.062 266.191L134.273 263.213L135.25 264.516L136.367 265.323L134.924 268.922L132.691 271.9L131.62 278.726L130.736 280.215L126.454 283.318L124.267 288.034Z" fill="#EEEEEE" stroke="#221F1F" stroke-width="0.4" stroke-miterlimit="10"/>
<path d="M89.3636 345.618L93.6453 346.362L95.7861 350.272L99.7418 351.513H103.186L107.374 354.491L111.656 354.429L113.564 355.422L114.774 358.4L115.1 361.503L121.289 362.93L122.267 368.949L125.478 370.438L128.875 371.121L130.69 372.548L130.271 374.844L131.249 378.753L133.389 380.181L137.066 380.925L138.742 379.87L139.672 381.111L142.418 381.422L143.954 384.028L147.63 384.586L150.795 387.254L155.216 388.992L138.695 394.142L135.065 390.978L131.9 387.379L127.432 386.572L128.503 385.517L126.409 382.29L124.966 383.842L123.151 383.469L119.661 381.173L116.915 378.443L114.495 378.133L112.68 380.367L108.538 379.002L101.743 374.534L97.4615 374.596L93.366 371.679L89.5498 366.157L87.5952 366.529L86.804 365.04L84.4306 364.792L81.8244 363.24L78.6597 364.978L78.8925 369.446L73.6334 370.376L69.3984 368.763L69.1192 370.128L64.2326 369.694L62.7899 368.453L59.8115 367.894L58.0429 366.405L58.6014 365.164L57.3914 360.51L57.8568 359.455L53.9941 356.042L58.4618 350.396L60.1837 345.68L58.5549 344.687L58.5084 341.274L61.8592 339.723L63.8138 337.427L68.7935 336.93L71.0739 333.766L73.5404 334.572L75.6813 338.606L74.8901 340.716L75.0762 344.625L76.3793 346.176L80.6143 347.603L84.8494 347.727L89.3636 345.618Z" fill="#EEEEEE" stroke="#221F1F" stroke-width="0.4" stroke-miterlimit="10"/>
<path d="M155.216 388.993L159.311 388.807L163.267 391.103L164.151 392.654L166.757 393.212L171.178 392.468L174.995 395.384L178.718 395.074L181.231 393.026L184.582 395.26L187.746 394.143L189.515 394.391L192.679 396.997L194.634 397.804L198.497 393.895L201.429 396.129L203.895 394.888L204.175 391.227L207.293 387.007L210.039 384.959L215.809 384.587L217.904 383.905L219.346 381.05L222.371 378.444L229.445 375.093L231.493 373.107L233.122 374.162L235.961 373.666L236.985 376.024L239.917 377.203L241.266 376.831L242.895 378.816L242.988 381.484L245.594 386.573L247.084 386.945L248.387 385.642L256.159 388L257.741 391.227L260.58 391.537L262.814 389.365L264.722 389.986L262.069 393.957L263.977 394.702L264.163 398.921L263 399.914L264.815 402.954L262.814 405.374L264.489 406.926L265.606 406.057L265.559 408.415L267.049 409.532L269.05 408.725L267.468 406.616L274.309 405.064L272.773 408.291L277.38 408.725L279.288 407.174L281.383 408.601L282.313 412.386L283.849 411.518L287.293 412.883L288.596 414.682L288.224 420.205L287.2 424.424L272.494 504.285L271.935 505.34L269.096 501.431L265.28 499.011L264.442 495.846L261.604 492.992L259.603 492.682L257.787 494.109L254.623 494.047L248.945 491.503L269.562 459.298L268.259 456.753L266.816 457.808L264.024 456.567L262.209 453.837L260.301 454.582L260.347 452.348L257.369 452.534L253.739 449.866L251.644 451.293L249.922 447.508L247.456 446.949L244.896 444.591L241.313 443.598L240.475 445.398L236.798 445.522L234.518 447.942L231.633 447.694L228.468 448.935L227.398 445.274L226.141 447.073L224.931 444.281L220.742 442.668L219.16 443.288L218.927 441.737L215.856 443.288L212.086 447.508H208.41L206.269 449.804L203.849 449.493L202.592 450.61L199.195 451.045L197.845 449.742L194.215 449.121L191.795 447.632L189.561 450.176L186.955 448.935L182.813 450.176L182.022 448.314L179.416 446.577L178.625 447.942L176.344 446.329L175.181 443.971L177.787 439.689L176.065 436.276L175.553 431.436L173.738 429.699L170.946 431.25L165.222 427.651L166.618 424.611L166.245 421.756L163.639 419.46L164.244 418.529L162.057 415.055L158.52 412.883L157.077 414.062L154.75 413.069L153.54 410.773L150.655 410.09L149.212 407.36L147.583 407.981L143.953 406.926L140.835 403.078L142.324 402.706L142.092 400.845L139.811 399.417L140.23 397.556L138.694 394.143L155.216 388.993Z" fill="#EEEEEE" stroke="#221F1F" stroke-width="0.4" stroke-miterlimit="10"/>
<path d="M104.395 72.3417L104.162 71.2247L105.931 67.8739L102.58 70.4801L100.812 71.0385L104.116 67.0052L106.396 65.516L106.164 63.2821L104.814 62.2892L106.768 60.4277L106.582 57.4492L109.747 54.5948L114.075 53.7261L114.913 56.2082L113.749 59.1245L114.447 60.4277L116.542 60.8L117.705 62.9719L119.334 62.6615L124.034 67.1293L123.243 71.0385L125.756 72.2175L127.246 74.2033L127.106 75.6304L125.198 77.1196L125.151 79.1053L127.013 82.2079L126.548 84.0694L127.99 86.3654L127.478 91.888L129.898 92.4465L135.948 98.1553L138.368 97.3486L138.88 98.5275L142.138 99.2722L145.303 102.623L148.421 104.547L149.817 103.74L151.585 105.726L154.89 106.222L154.983 108.766L156.844 110.938L156.193 116.212L158.194 121.735L158.38 125.644L157.217 128.995L157.496 130.733L155.402 132.408L154.936 135.386L156.612 142.274L156.053 147.859L153.866 150.403L154.099 153.381L153.214 156.732L143.627 165.916L140.882 165.482L139.299 160.704L139.206 156.112L140.788 152.761L140.277 151.023L137.205 154.871L134.413 153.009L133.668 149.969L134.459 146.742L136.274 145.315L136.693 143.577L135.343 141.592L135.018 138.613L133.342 135.697L126.361 129.864L127.339 128.002L127.246 127.133L130.922 126.265L134.087 123.534L134.785 121.611L133.249 113.668L135.064 111.248L131.574 106.408L126.687 103.057L124.453 100.079L123.29 94.9286L124.5 92.3845L123.243 91.2055L120.637 90.7711L121.289 89.3439L119.52 89.0956L116.123 85.993L112.726 84.8762L110.492 85.993L111.888 78.733L107.42 77.6781L107.513 73.955L105.838 74.017L107.234 70.8524L104.395 72.3417ZM114.866 52.1127L113.703 52.2368L114.913 50.6855L115.099 51.6163L114.866 52.1127Z" fill="#EEEEEE" stroke="#221F1F" stroke-width="0.4" stroke-miterlimit="10"/>
<path d="M98.4386 253.967L95.5532 260.296L92.4351 265.012L91.3647 269.604L89.7824 273.141L89.9219 276.988L88.9912 280.091L83.5927 277.981L78.1475 276.864L77.2634 281.084L74.6572 283.131L70.5152 282.945L67.909 280.897L66.9317 282.697L64.6512 283.566L60.8351 281.332L57.9962 280.649L53.4354 282.697L51.7134 281.084L50.3638 281.456L47.3389 277.298L47.5715 275.623L50.2708 274.258L52.7838 268.859L54.6454 268.301L56.1812 265.943L55.4831 263.523L57.0189 263.461L57.2981 261.475L60.4162 258.559L57.5774 258.311L57.6705 259.676L53.7611 261.041L51.9927 258.931L52.365 257.132L54.0404 256.883L55.6693 254.153L53.4354 252.912L52.4116 254.153L50.9689 258.311L48.5954 256.015L49.1073 254.774L48.3161 251.547L50.8757 250.244L52.8304 249.809L53.4354 249.251L53.7611 248.879L54.9246 251.175H57.6239L59.3924 253.036L62.6501 252.54L64.5583 254.96L69.4448 256.325L71.3529 254.525L73.4937 254.774L78.1475 250.244L76.4722 249.065V246.583L74.9829 244.349L77.1237 244.039L78.1011 242.177L78.5664 238.702L82.2896 235.103L82.6618 232.931L86.2919 229.394L87.1761 226.974L89.1308 225.051L94.1104 233.242L99.9278 234.793L100.067 236.158L96.577 236.282L95.0412 239.633L94.6223 243.542L97.0424 244.349L97.6008 247.638L96.4373 249.996L96.3909 252.974L98.4386 253.967Z" fill="#EEEEEE" stroke="#221F1F" stroke-width="0.4" stroke-miterlimit="10"/>
<path d="M100.858 92.6958L103.185 91.6409L104.488 86.5526L103.278 84.505L100.719 84.1326L102.348 82.4573L104.163 76.19L104.395 72.3428L107.234 70.8535L105.838 74.0182L107.514 73.9561L107.42 77.6792L111.888 78.7342L110.492 85.9942L112.726 84.8773L116.123 85.9942L119.52 89.0968L121.289 89.345L120.637 90.7722L123.244 91.2066L124.5 92.3856L123.29 94.9297L124.454 100.08L126.687 103.059L131.574 106.409L135.065 111.249L133.25 113.669L134.785 121.612L134.087 123.536L130.923 126.266L127.246 127.135L127.106 125.025L123.151 120.929L119.148 121.922L116.03 123.411L112.726 121.053L110.818 111.311L112.679 108.457L115.285 107.65L115.192 104.113L108.77 100.701L107.746 98.1564L100.812 94.6194L100.858 92.6958Z" fill="#EEEEEE" stroke="#221F1F" stroke-width="0.4" stroke-miterlimit="10"/>
<path d="M114.076 53.7266L115.1 52.982L114.867 52.1132L115.1 51.6167L114.913 50.686L120.591 47.4593L120.964 45.7219L126.176 42.3711L128.549 45.1013L129.759 48.0178L129.62 57.5738L127.339 59.8077L126.455 62.9723L124.035 67.1297L119.335 62.662L117.706 62.9723L116.542 60.8004L114.448 60.4282L113.75 59.125L114.913 56.2086L114.076 53.7266Z" fill="#722F37" stroke="#221F1F" stroke-width="0.4" stroke-miterlimit="10"/>
<path d="M157.496 130.732L157.217 128.995L158.38 125.644L158.194 121.735L156.193 116.212L156.844 110.938L154.983 108.766L157.031 103.74L154.704 99.8303L152.516 99.5201L152.423 96.5415L151.074 93.3769L147.071 90.3363L150.329 87.544L154.797 88.2266L157.496 87.3579L155.774 83.0763V81.587L150.888 76.4988L149.166 73.5824L149.631 70.0454L154.238 63.9643L157.868 63.4058L163.546 60.055L162.476 55.5253L164.011 53.1673L161.545 51.9262L162.708 49.6923L167.269 49.0098L172.575 49.6923L173.226 53.0432L176.949 54.7185L178.392 56.1458L175.274 61.4202L176.763 63.0956L180.254 63.0336L183.092 62.2268L182.534 69.8593L180.998 75.1957L181.324 80.0978L177.042 88.4127L175.413 89.5917L172.528 94.4318L171.504 97.038L169.503 98.9616L169.968 100.389L168.386 100.885L167.502 109.448L168.107 111.682L164.337 116.46L164.105 117.825L166.199 121.61L165.128 123.72L167.269 125.83L168.759 124.279L168.2 122.169L169.689 121.921L170.294 123.72L168.665 128.747L168.712 131.787L170.062 135.076L172.249 136.007L170.434 138.737L170.248 141.343L168.014 144.384L166.106 145.314L162.243 143.639L158.52 143.453L158.66 140.971L160.707 138.861L160.754 137.248L159.171 136.007L157.496 130.732Z" fill="#EEEEEE" stroke="#221F1F" stroke-width="0.4" stroke-miterlimit="10"/>
<path d="M163.407 39.2067L163.872 36.6626H168.665L171.923 36.1041L178.904 30.023L182.441 28.1614L187.514 23.8798L196.542 20.9634L202.08 18.109L205.71 11.4695L204.733 7.56021L210.643 6.87765L209.294 8.73921L210.737 9.91821L213.622 8.24277L212.877 6.19509L210.876 6.00897L213.575 3.52689L215.483 4.76793L218.695 1.60317L218.555 0.486328L223.442 0.920609L231.958 4.45761L235.775 11.5315L235.076 13.8895L230.423 16.806L229.585 18.9777L226.001 20.6532L210.737 24.8107L209.62 25.9275L202.406 39.8273L195.286 41.2544L193.052 46.2186L189.236 50.6243L187.839 54.7196L185.233 58.2566L183.092 62.2279L180.254 63.0347L176.763 63.0967L175.274 61.4212L178.392 56.1469L176.949 54.7196L173.226 53.0443L172.575 49.6934L167.269 49.0109L162.708 49.6934L161.405 45.2877L161.778 40.82L163.407 39.2067Z" fill="#EEEEEE" stroke="#221F1F" stroke-width="0.4" stroke-miterlimit="10"/>
<path d="M162.708 49.6935L161.545 51.9274L164.011 53.1685L162.475 55.5264L163.546 60.0562L157.868 63.407L154.238 63.9654L149.631 70.0466L149.165 73.5836L150.887 76.4999L155.774 81.5882V83.0775L157.496 87.3591L154.797 88.2278L150.329 87.5452L147.071 90.3375L151.073 93.378L152.423 96.5427L152.516 99.5212L154.704 99.8314L157.03 103.741L154.983 108.767L154.89 106.223L151.585 105.726L149.817 103.741L148.421 104.547L145.303 102.624L142.138 99.2731L138.88 98.5283L138.368 97.3495L135.948 98.1561L129.898 92.4473L127.478 91.8889L127.99 86.3662L126.547 84.0702L127.013 82.2087L125.151 79.1061L125.198 77.1205L127.106 75.6313L127.246 74.2041L125.756 72.2183L123.243 71.0393L124.034 67.1301L126.454 62.9727L127.339 59.808L129.619 57.5741L129.759 48.0182L128.549 45.1017L126.175 42.3715L126.268 41.6889L135.716 45.1017L140.463 45.9083L136.321 45.7842L135.855 47.2735L136.926 49.5074L133.761 48.4525L133.296 51.3689L136.693 49.8177L137.67 52.61L140.416 51.8033L142.836 45.2878L144.698 42.6196L144 39.0206L145.582 35.4837L150.98 34.3047L156.239 36.6627H163.872L163.406 39.2068L161.777 40.8201L161.405 45.2878L162.708 49.6935Z" fill="#EEEEEE" stroke="#221F1F" stroke-width="0.4" stroke-miterlimit="10"/>
<path d="M211.761 165.482L215.67 166.04L217.392 164.799L222 163.993L232.052 164.986L232.285 166.04L234.984 166.661L241.639 165.172L243.361 163.62L249.318 162.441L253.041 162.814L254.763 164.923L256.532 165.172L260.813 167.219L265.607 165.978L267.422 166.971L287.154 191.668H287.526L283.338 193.778L276.962 193.591L274.868 194.708L271.75 191.73L269.749 190.985L266.956 188.007L264.815 187.386L259.324 187.262L255.415 188.875L248.76 189.31L244.664 189.186L234.426 187.51L226.84 189.806L222.465 189.496L219.068 189.806L215.065 191.171L212.366 191.296L206.13 193.653L203.058 191.73L200.452 187.945L201.197 185.276L202.872 182.67L206.083 181.553L207.014 179.63L207.712 173.859L209.155 172.246L211.761 165.482Z" fill="#EEEEEE" stroke="#221F1F" stroke-width="0.4" stroke-miterlimit="10"/>
<path d="M162.243 143.64L166.106 145.315L168.014 144.384L170.248 141.344L170.434 138.737L172.249 136.007L170.062 135.076L168.712 131.788L168.666 128.747L170.294 123.721L169.689 121.921L168.2 122.17L168.759 124.279L167.269 125.831L165.129 123.721L166.199 121.611L164.105 117.826L164.337 116.461L168.107 111.683L167.502 109.449L168.386 100.886L169.969 100.389L174.436 100.141L180.44 96.418L181.371 100.824L182.627 102.375L185.885 101.072L187.188 103.554L190.399 115.84L191.004 116.833L199.009 125.272L198.73 127.754L200.545 132.346L200.126 134.208H198.45L196.077 137.062L197.147 140.599L196.217 146.121L196.822 148.479L196.263 150.403L197.194 152.389L201.057 153.94L204.501 154.188L205.757 155.74L206.083 159.835L208.27 163.682L210.876 165.296L205.292 164.489L203.197 166.413L202.127 165.544L199.288 169.391L195.658 168.336L194.402 169.205L193.517 165.606L188.491 166.102L184.303 163.558L185.932 160.828L184.396 158.036L185.559 154.933L183.744 151.396L181.603 149.659L181.138 147.238L174.436 146.742L173.133 149.348L169.829 149.1L165.873 147.487L162.243 143.64Z" fill="#EEEEEE" stroke="#221F1F" stroke-width="0.4" stroke-miterlimit="10"/>
<path d="M201.196 185.275L200.452 187.944L203.058 191.729L206.129 193.652L212.365 191.294L215.065 191.17L219.067 189.805L222.464 189.495L226.839 189.805L234.425 187.509L244.663 189.185L248.759 189.309L255.414 188.874L259.323 187.261L264.815 187.385L266.956 188.006L269.748 190.984L271.749 191.729L274.867 194.707L273.611 196.383L271.516 201.347L268.585 205.566L265.094 208.049L260.394 208.669L257.229 209.786L250.388 214.13L250.109 216.115L244.152 221.266L242.011 222.382L239.032 228.464L234.425 231.566L232.61 231.814L223.954 235.662L220.37 237.895L216.368 239.074L214.041 241.619L210.597 244.225L208.875 244.349L206.455 242.673L201.289 243.977L199.986 245.9L197.985 245.59L195.844 246.645L194.215 245.59L193.378 246.955L188.584 246.893L188.444 245.776L183.232 240.502L179.462 234.172L178.997 231.876L180.114 226.602L181.789 226.788L183.837 223.623L182.394 221.762L182.86 218.908L186.723 214.564L189.701 217.667L193.238 215.433L198.311 209.289L201.336 210.841L202.732 206.497L203.756 205.442L200.358 201.905L197.473 200.354L199.102 198.927L200.638 193.528L198.404 189.743L200.219 185.772L201.196 185.275Z" fill="#722F37" stroke="#221F1F" stroke-width="0.4" stroke-miterlimit="10"/>
<path d="M210.085 357.099L207.944 355.672L203.989 354.865L201.801 352.569L201.755 350.459L199.055 348.473L198.59 346.115L196.915 344.378L194.82 343.757L191.004 341.151L188.957 340.965L188.305 342.33L186.583 340.965L185.001 342.206L184.349 345.557L180.812 348.473L178.671 349.218L175.879 347.915L168.386 340.655L167.828 337.8L164.244 333.767L160.894 328.058L161.312 327.562L161.499 307.891L163.174 305.099L168.34 306.775L173.878 306.154L174.669 305.037L176.531 305.844L180.486 304.292L183.279 302.307L183.93 300.197L187.374 298.584L189.003 299.825L189.98 298.398L192.121 299.639L192.819 298.025L198.45 295.791L200.079 294.488L203.523 295.667L203.663 293.93L205.292 293.371L205.152 291.51L207.433 290.517L211.295 292.565L215.949 291.572L217.299 290.703L218.276 292.006L219.021 290.083L222.371 292.068L224.233 290.827L229.585 291.137L231.959 289.338L234.285 290.827L236.007 289.958L239.126 290.393L242.197 290.517L246.432 292.565L253.273 291.137L256.066 292.875L244.198 297.901L244.105 298.77L248.666 300.631L250.807 303.424L252.436 306.712L256.019 308.264L261.976 309.815L270.027 308.202L271.144 310.622L267.98 313.538L265.094 315.71L257.788 317.013L256.159 318.068L250.062 319.619L248.759 319.123L243.779 319.247L242.104 321.108L236.333 324.025L233.215 326.569L229.399 324.77L228.98 328.865L228.142 329.858L224.885 338.483V342.144L222.837 345.619L220.929 347.481L218.462 347.791L217.532 349.466L210.085 357.099Z" fill="#EEEEEE" stroke="#221F1F" stroke-width="0.4" stroke-miterlimit="10"/>
<path d="M239.126 290.393L236.008 289.958L234.286 290.827L231.959 289.338L229.585 291.137L224.233 290.827L222.372 292.068L219.021 290.082L218.276 292.006L217.299 290.703L215.949 291.572L211.295 292.565L207.433 290.517L205.152 291.51L205.292 293.371L203.663 293.93L203.523 295.667L200.079 294.488L198.451 295.791L192.819 298.025L192.121 299.638L189.981 298.397L189.003 299.825L187.374 298.583L183.93 300.197L183.279 302.307L180.487 304.292L176.531 305.844L174.669 305.037L173.878 306.154L168.34 306.774L163.174 305.099L161.499 307.891L161.313 327.562L160.894 328.058L153.634 327.81L135.856 321.481L132.97 317.882L132.691 315.462L134.832 311.242L131.807 307.147L131.621 302.741L133.296 294.984L129.294 289.338L124.268 288.035L126.455 283.319L130.737 280.216L131.621 278.727L132.691 271.901L134.925 268.923L136.368 265.324L138.322 266.068L141.068 262.097L141.906 259.801L144.931 255.768L146.513 256.14L147.444 256.202L150.981 253.286L156.705 250.245H158.567L157.496 247.515L157.31 242.985L160.196 240.627L162.429 241.806L164.943 247.08L166.478 247.701L170.108 246.646L173.785 247.577L177.089 249.128L179.184 234.732L179.463 234.174L183.232 240.503L188.445 245.777L188.584 246.894L193.378 246.956L194.216 245.591L195.844 246.646L197.985 245.591L199.986 245.901L201.29 243.978L206.455 242.675L208.875 244.35L210.597 244.226L214.041 241.62L216.368 239.076L220.371 237.897L223.954 235.663L232.61 231.816L234.425 231.567L239.033 228.465L239.126 275.5V290.393Z" fill="#EEEEEE" stroke="#221F1F" stroke-width="0.4" stroke-miterlimit="10"/>
<path d="M231.493 373.107L228.514 371.308L224.977 371.742L220.463 369.322L217.531 365.847L215.577 365.971L215.856 364.544L213.063 362.434L213.343 360.821L211.295 359.704L210.085 357.098L217.531 349.465L218.462 347.79L220.929 347.479L222.836 345.618L224.884 342.143V338.482L228.142 329.857L228.98 328.864L229.399 324.769L233.215 326.568L236.333 324.024L242.104 321.107L243.779 319.246L248.759 319.122L250.062 319.618L256.158 318.067L257.787 317.012L265.094 315.709L267.979 313.537L266.444 320.611L269.655 323.217L275.937 325.451L275.705 326.63L275.658 345.06L278.358 344.129L279.754 345.06L282.639 344.625L286.874 344.997L288.689 345.928L290.132 344.935L292.598 345.68L296.694 350.83L295.623 355.484L297.159 357.408L294.507 358.525L290.411 357.718L288.084 355.422L286.13 354.988L282.686 357.408L280.405 356.911L277.054 358.711L269.608 359.331L269.003 380.926L269.189 381.98L272.913 386.386L275.472 387.441L278.823 390.854L282.267 392.467L283.71 396.625L282.406 399.355L284.082 401.775L285.059 405.002L287.758 407.298L287.805 410.214L289.248 412.944L288.596 414.682L287.293 412.882L283.849 411.517L282.313 412.386L281.383 408.601L279.288 407.173L277.38 408.725L272.773 408.29L274.309 405.064L267.467 406.615L269.05 408.725L267.049 409.531L265.559 408.415L265.606 406.057L264.489 406.925L262.814 405.374L264.815 402.954L263 399.913L264.163 398.921L263.977 394.701L262.069 393.956L264.722 389.985L262.814 389.365L260.58 391.536L257.741 391.226L256.158 387.999L248.386 385.641L247.083 386.945L245.594 386.572L242.988 381.484L242.895 378.816L241.266 376.83L239.916 377.202L236.984 376.023L235.961 373.665L233.122 374.162L231.493 373.107Z" fill="#EEEEEE" stroke="#221F1F" stroke-width="0.4" stroke-miterlimit="10"/>
<path d="M256.066 292.874L253.273 291.136L246.432 292.563L242.197 290.516L239.125 290.392V275.499L239.032 228.464L242.011 222.383L244.152 221.266L250.109 216.115L250.388 214.13L257.229 209.786L260.394 208.669L265.094 208.049L268.584 205.567L271.516 201.347L273.611 196.383L274.867 194.708L276.961 193.591L283.337 193.777L287.526 191.667L291.109 190.922L293.064 192.908L298.602 188.689L305.536 189.557L311.354 191.046L312.843 189.992L316.938 189.185L321.267 189.743L325.967 188.192L329.783 188.564L332.622 187.82L335.182 185.586L338.393 185.648L343.14 186.765L345.653 188.689V191.295L347.561 193.591L347.421 195.762L345.932 196.507L342.488 200.292L341.278 202.588L341.092 205.256L342.163 208.421L341.232 210.531L336.345 213.758L335.368 216.24L336.299 219.59L335.973 221.948L336.95 223.313L335.973 229.208L336.392 230.139L334.949 240.13L336.019 240.75L337.462 245.342L336.811 247.514L337.416 250.368L339.51 254.402L337.136 257.07L334.716 258L332.482 256.946L331.412 257.69L328.201 255.58L325.92 258.125L325.362 256.511L323.407 257.504L322.942 255.643L320.289 255.146L319.545 258.311L314.611 262.034L310.33 261.972L306.886 265.261L302.651 264.888L302.139 266.75L299.766 266.377L298.742 267.619L296.787 265.757L295.717 266.44L292.226 264.206L288.038 265.509L286.735 264.578L282.872 265.323L281.429 269.914L279.8 269.108L274.169 269.17L272.122 271.093L268.491 270.473L268.957 273.451L267.421 273.762L266.49 275.809L267.142 280.153L265.048 280.401L261.79 283.876L262.814 287.599L259.556 291.012L256.066 292.874Z" fill="#EEEEEE" stroke="#221F1F" stroke-width="0.4" stroke-miterlimit="10"/>
<path d="M126.361 129.864L133.342 135.697L135.018 138.613L135.344 141.592L136.693 143.577L136.274 145.315L134.459 146.742L133.668 149.969L134.413 153.009L137.205 154.871L140.277 151.024L140.789 152.761L139.206 156.112L139.299 160.704L140.882 165.482L143.627 165.916L153.214 156.732L153.447 162.627L154.471 165.172L150.934 167.778L147.909 172.121L142.417 176.217L139.625 177.086L139.02 181.677L139.858 183.229L135.669 187.448L133.854 189.496L133.11 192.288L133.947 194.026L133.528 198.431L132.039 200.169L131.388 202.899L129.899 202.775L127.944 205.381L125.291 203.706L121.568 204.637L118.59 206.25L118.543 208.174L117.007 210.159L115.472 210.531L113.051 213.076L111.795 212.145L111.143 208.422L109.794 205.816L107.234 205.878L102.999 203.892L103.604 205.505L103.79 210.469L99.2294 209.29L95.6458 211.338L92.6209 210.78L90.1542 208.67L88.5254 206.622L88.8512 204.078L87.5015 200.045L88.1531 196.632L84.9885 194.832L83.2199 190.179L79.9157 190.116L74.5172 190.923L70.6079 190.737L67.5829 186.207L68.0018 181.181L64.8836 178.14L64.5579 174.79L63.5805 175.348L62.5567 171.253L66.6521 170.384L67.8155 168.895L66.8383 165.544L71.213 164.799L75.3084 165.916L76.5649 163.372L75.8668 158.098L74.1449 156.422L71.0267 154.871L65.5818 148.48L58.694 142.709L58.3682 140.041L61.3001 138.365L61.9052 135.325L63.3944 132.718L62.4636 127.568L63.9528 129.74L63.7202 131.415L67.0244 131.167L66.9779 134.518L64.744 133.959L63.9528 136.38L66.3263 137.993L69.2117 137.683L69.9563 132.967L68.8859 127.506V123.287L66.8848 120.184L63.6736 118.819L65.3025 116.585L71.8179 114.785L72.609 112.8L75.2152 111.931L78.6591 109.139L80.288 113.11L81.9634 115.468L84.9885 118.012L85.3142 123.038L82.3358 126.948L79.2641 132.408L78.8453 137.434L76.658 143.205L76.8441 147.487L79.4968 154.188L95.5528 154.747L98.5313 150.651L103.837 148.542L105.14 144.943L107.793 141.344L110.678 139.048L114.634 134.146L118.031 133.525L123.15 133.401L126.361 129.864Z" fill="#EEEEEE" stroke="#221F1F" stroke-width="0.4" stroke-miterlimit="10"/>
<path d="M126.362 129.864L123.151 133.401L118.031 133.525L114.634 134.145L110.678 139.048L107.793 141.344L105.14 144.943L103.837 148.542L98.5315 150.651L95.553 154.747L79.497 154.188L76.8443 147.487L76.6582 143.205L78.8455 137.434L79.2643 132.408L82.336 126.948L85.3144 123.038L84.9887 118.012L81.9636 115.468L80.2882 113.11L78.6593 109.139L79.1714 107.898L82.2429 107.029L84.2906 105.043L84.3371 103.058L86.3384 100.7L86.9433 97.7831L88.4326 97.2246L89.596 94.8667L94.5756 92.3225L97.3215 91.8262L97.5076 93.4394L100.858 92.6948L100.812 94.6185L107.746 98.1555L108.77 100.7L115.192 104.112L115.285 107.649L112.679 108.456L110.818 111.31L112.726 121.053L116.03 123.411L119.148 121.921L123.151 120.928L127.106 125.024L127.246 127.134L127.339 128.002L126.362 129.864Z" fill="#EEEEEE" stroke="#221F1F" stroke-width="0.4" stroke-miterlimit="10"/>
<path d="M195.658 168.335L199.288 169.39L202.127 165.543L203.197 166.412L205.292 164.488L210.876 165.295L211.76 165.481L209.154 172.245L207.712 173.858L207.013 179.629L206.083 181.553L202.871 182.669L201.196 185.276L200.219 185.772L198.404 189.743L200.638 193.529L199.102 198.927L197.473 200.354L200.358 201.906L203.756 205.442L202.732 206.497L201.336 210.841L198.311 209.29L193.238 215.433L189.701 217.667L186.722 214.564L182.86 218.908L182.394 221.762L183.837 223.624L181.789 226.788L180.114 226.602L178.997 231.877L179.462 234.173L178.252 235.91H174.529L174.203 234.545L171.923 234.11L168.991 230.015L165.408 229.581L164.71 228.216L165.547 225.485L166.711 224.617L165.408 219.032L163.546 216.984L163.36 214.502L161.498 212.268L157.356 210.841L156.472 209.352L151.12 214.874L148.514 213.509L148.235 212.454L143.86 211.586L142.185 208.483L142.464 206.001L141.812 202.34L140.789 201.223L137.996 203.022L135.204 202.278L131.853 203.457L131.481 203.085L131.388 202.898L132.039 200.168L133.528 198.431L133.947 194.025L133.11 192.287L133.854 189.495L135.669 187.448L137.996 193.094L140.509 194.832L142.464 193.839L144 196.569L143.069 199.548L144.186 200.665L145.954 198.989L147.816 199.92L151.958 204.077L158.985 203.209L161.917 204.388L162.662 198.369L163.732 195.762L166.059 192.722L169.131 195.018L169.038 198.369L166.897 200.54L168.945 203.333L170.387 200.292L172.435 200.354L174.436 196.507L179.928 197.748L184.116 192.225L186.397 191.295L188.258 188.999L188.91 182.173L187.048 179.877L188.026 178.636L189.608 179.939L191.051 182.856L192.354 182.669L194.588 180.746L195.891 176.402L196.449 170.445L195.658 168.335Z" fill="#722F37" stroke="#221F1F" stroke-width="0.4" stroke-miterlimit="10"/>
<path d="M195.659 168.336L196.45 170.446L195.891 176.403L194.588 180.746L192.354 182.67L191.051 182.856L189.609 179.94L188.026 178.636L187.049 179.877L188.91 182.173L188.259 188.999L186.397 191.295L184.117 192.226L179.928 197.748L174.437 196.507L172.436 200.355L170.388 200.293L168.945 203.333L166.898 200.541L169.038 198.369L169.131 195.018L166.06 192.722L163.733 195.763L162.663 198.369L161.918 204.388L158.986 203.209L151.959 204.078L147.817 199.92L145.955 198.989L144.187 200.665L143.07 199.548L144 196.569L142.465 193.839L140.51 194.832L137.997 193.095L135.67 187.448L139.859 183.228L139.021 181.677L139.626 177.085L142.418 176.216L147.91 172.121L150.935 167.777L154.472 165.171L153.448 162.627L153.215 156.732L154.099 153.381L153.867 150.403L156.054 147.859L156.612 142.274L154.937 135.386L155.403 132.408L157.497 130.732L159.172 136.007L160.754 137.248L160.708 138.861L158.66 140.971L158.521 143.453L162.244 143.639L165.874 147.486L169.829 149.1L173.134 149.348L174.437 146.742L181.139 147.238L181.604 149.658L183.745 151.396L185.56 154.933L184.396 158.035L185.932 160.828L184.303 163.558L188.492 166.102L193.518 165.606L194.402 169.205L195.659 168.336Z" fill="#EEEEEE" stroke="#221F1F" stroke-width="0.4" stroke-miterlimit="10"/>
<path d="M131.388 202.899L131.481 203.086L131.853 203.458L132.133 206.747L130.923 209.601L131.434 212.331L128.782 217.42L126.269 216.675L123.057 216.861L119.381 218.04L117.24 221.329L116.17 220.957L112.493 222.136L110.864 224.307L111.795 225.3L110.678 228.03L111.423 229.334L109.933 232.188L106.536 228.589L102.999 228.155L102.208 226.914L100.067 227.534L98.9037 224.742L97.4611 227.968L95.5995 228.155L93.5518 224.804L94.6222 222.446L96.251 222.756L97.1353 220.336L96.8561 217.854L100.579 218.35L102.068 216.923L99.8346 214.131L95.6926 214.813L95.646 211.339L99.2296 209.291L103.79 210.47L103.604 205.506L102.999 203.892L107.234 205.878L109.794 205.816L111.144 208.422L111.795 212.145L113.052 213.076L115.472 210.532L117.007 210.16L118.543 208.174L118.59 206.25L121.568 204.637L125.291 203.706L127.944 205.382L129.899 202.775L131.388 202.899Z" fill="#EEEEEE" stroke="#221F1F" stroke-width="0.4" stroke-miterlimit="10"/>
<path d="M128.782 217.42L131.435 212.332L130.923 209.602L132.133 206.747L131.854 203.458L135.205 202.279L137.997 203.024L140.789 201.225L141.813 202.341L142.465 206.003L142.185 208.485L143.861 211.587L148.236 212.456L148.515 213.511L151.121 214.876L156.473 209.353L157.357 210.843L161.499 212.27L163.361 214.504L163.547 216.986L165.408 219.033L166.711 224.618L165.548 225.487L164.71 228.217L165.408 229.582L168.992 230.017L171.924 234.112L174.204 234.546L174.53 235.912H178.253L179.463 234.174L179.184 234.733L177.09 249.129L173.785 247.577L170.109 246.647L166.479 247.701L164.943 247.081L162.43 241.806L160.196 240.628L157.311 242.985L157.497 247.515L158.567 250.246H156.706L150.981 253.286L147.444 256.202L146.514 256.14L148.329 252.107L146.7 248.012L147.91 246.026L147.677 244.164L151.307 237.277L150.656 236.098L150.842 231.754L148.701 231.196L146.327 235.974L144.419 237.401L145.769 241.248L144.745 248.694L142.977 253.41L141.348 252.604L140.045 255.334L140.324 258.064L138.555 262.222L136.368 265.324L135.251 264.518L134.274 263.214L135.81 257.94L135.251 256.823L136.554 251.238L134.553 248.26L131.575 250.059L127.712 247.826L124.826 248.26L124.594 247.019L126.735 242.303L126.688 238.021L127.386 237.029L126.409 234.546L128.363 232.188V227.286L129.155 222.943L128.782 217.42Z" fill="#722F37" stroke="#221F1F" stroke-width="0.4" stroke-miterlimit="10"/>
<path d="M136.367 265.324L138.554 262.221L140.323 258.064L140.044 255.333L141.347 252.603L142.976 253.41L144.744 248.694L145.768 241.248L144.418 237.4L146.326 235.973L148.7 231.195L150.841 231.754L150.655 236.097L151.306 237.276L147.676 244.164L147.909 246.026L146.699 248.011L148.328 252.107L146.513 256.14L144.93 255.768L141.905 259.801L141.068 262.097L138.322 266.068L136.367 265.324Z" fill="#EEEEEE" stroke="#221F1F" stroke-width="0.4" stroke-miterlimit="10"/>
<path d="M95.6462 211.338L95.6927 214.813L99.8348 214.131L102.069 216.923L100.579 218.35L96.8563 217.854L97.1355 220.336L96.2512 222.756L94.6224 222.446L93.552 224.803L95.5997 228.154L97.4613 227.968L98.9039 224.741L100.067 227.534L102.208 226.913L102.999 228.154L106.536 228.589L109.934 232.188L109.561 234.732L106.397 236.035L105.326 235.228L99.9278 234.794L94.1104 233.243L89.1308 225.052L88.4792 220.77L86.0127 216.737L86.4781 213.696L88.6189 212.331L90.1546 208.67L92.6212 210.78L95.6462 211.338Z" fill="#EEEEEE" stroke="#221F1F" stroke-width="0.4" stroke-miterlimit="10"/>
<path d="M99.9275 234.794L105.326 235.229L106.396 236.036L109.561 234.732L108.258 237.649L106.815 238.394L103.837 243.42L103.232 247.391L98.4383 253.969L96.3906 252.976L96.437 249.997L97.6006 247.639L97.0421 244.351L94.6221 243.544L95.041 239.635L96.5768 236.284L100.067 236.16L99.9275 234.794Z" fill="#EEEEEE" stroke="#221F1F" stroke-width="0.4" stroke-miterlimit="10"/>
<path d="M275.938 325.452L269.655 323.218L266.444 320.612L267.98 313.538L271.145 310.621L270.028 308.201L261.976 309.815L256.019 308.263L252.436 306.712L250.807 303.423L248.666 300.631L244.105 298.769L244.199 297.901L256.066 292.874L259.556 291.013L262.814 287.6L261.79 283.877L265.048 280.402L267.142 280.154L266.491 275.81L267.421 273.763L268.957 273.452L268.492 270.474L272.122 271.094L274.17 269.171L279.801 269.109L281.43 269.915L282.872 265.323L286.735 264.579L288.038 265.51L292.227 264.206L295.717 266.44L296.788 265.758L298.742 267.619L299.766 266.378L302.14 266.751L302.651 264.889L306.887 265.261L310.33 261.973L314.612 262.035L319.545 258.312L320.29 255.147L322.943 255.643L323.408 257.505L325.363 256.512L325.921 258.125L328.201 255.581L331.413 257.691L332.483 256.946L334.717 258.001L337.137 257.071L339.51 254.402L340.208 257.753L342.116 262.841L345.002 263.586L347.003 265.261L349.051 270.598L352.076 273.018L351.936 274.259L349.377 277.858L347.655 278.54L336.066 289.462L335.554 292.44L338.719 290.765L342.489 291.695L344.025 295.357L346.77 296.225L351.61 301.934L355.473 304.106L356.218 306.029L354.915 307.643L356.357 311.986L357.847 312.669L357.428 316.206L359.522 319.495L362.128 326.445L363.571 331.409L363.617 333.767L365.153 336.745L365.386 339.91L359.615 341.461L358.638 339.041L359.336 330.23L357.986 325.141L356.823 322.783L353.518 318.378L351.192 313.6L348.213 312.111L343.606 314.717L337.695 322.101L335.554 323.652L331.413 323.963L329.598 321.977L328.294 318.75L325.269 316.206L322.896 321.605L326.433 324.893L290.644 325.017L283.803 323.528L281.709 324.521L275.938 325.452Z" fill="#EEEEEE" stroke="#221F1F" stroke-width="0.4" stroke-miterlimit="10"/>
</g>
<defs>
<clipPath id="clip0_1037_1050">
<rect width="366" height="506" fill="white"/>
</clipPath>
</defs>
</svg>
